<svg width="219" height="298" viewBox="0 0 219 298" fill="none" xmlns="http://www.w3.org/2000/svg">
<path d="M8.33447 29.7271V45.1684L9.91119 45.4544C10.7234 45.5974 17.7948 45.645 25.535 45.5974L39.6299 45.4544L39.7732 29.8224L39.8688 14.2381H24.1016H8.33447V29.7271ZM35.5686 29.7271V40.8792L24.5794 41.0222C18.5114 41.1175 13.3513 41.0698 13.1124 41.0222C12.8257 40.9268 12.6346 36.6376 12.6346 29.6795V18.5274H24.1016H35.5686V29.7271Z" fill="#8B8B8B"/>
<path d="M17.4126 29.7273V36.1611H24.1017H30.7908V29.7273V23.2934H24.1017H17.4126V29.7273Z" fill="#8B8B8B"/>
<path d="M49.2811 14.5717C49.09 14.7147 48.9466 16.764 48.9466 19.0993V23.2932H46.7965H44.6465L44.742 36.4946L44.8854 49.7436L46.8921 49.8866L48.8988 50.0296L49.0422 43.2144C49.1855 36.4469 49.1855 36.3993 50.3322 36.2563C50.9056 36.161 51.9567 36.2086 52.5778 36.3516L53.7245 36.6375L53.629 45.5973L53.4856 54.5094L51.3356 54.7477L49.1855 54.986V56.8924V58.7987L53.629 58.9417L58.0247 59.0846V61.4199V63.7552L56.0179 63.8981C53.9634 64.0411 53.9634 64.0411 53.7245 66.1857L53.4856 68.3304L51.3356 68.5687L49.1855 68.807V70.7133V72.6196H53.4856H57.7858L58.0247 70.475C58.2636 68.3304 58.2636 68.3304 60.2703 68.1874L62.277 68.0444L62.4204 63.6599L62.5637 59.2753L64.8571 59.1323L67.1027 58.9893V56.8447V54.7477H62.5637H58.0247V43.3097V31.8717H62.5637H67.1027V34.2546V36.6375H64.9527H62.7548L62.8981 41.0221L63.0415 45.4543H64.9527H66.8638L67.0072 43.1667L67.1505 40.9268H69.3006H71.4029V34.2546V27.5825H69.2528H67.1027V25.4378V23.2932H65.0004H62.8504L62.707 25.2949L62.5637 27.3442L60.3181 27.4871L58.0247 27.6301V23.1026V18.5274H60.1747H62.3248V16.3827V14.2381H55.9702C52.4345 14.2381 49.4244 14.3811 49.2811 14.5717ZM53.1512 27.5348C53.5812 27.5825 53.7245 28.202 53.629 29.5841L53.4856 31.6334L51.24 31.7764L48.9466 31.9194V29.7747C48.9466 27.5348 49.4722 27.0582 51.5745 27.3918C52.1 27.4395 52.8167 27.5348 53.1512 27.5348Z" fill="#8B8B8B"/>
<path d="M67.2941 15.3821C66.7685 17.622 67.1986 18.2892 69.3964 18.4322L71.4031 18.5752V16.4306V14.2383H69.492C67.8675 14.2383 67.533 14.4289 67.2941 15.3821Z" fill="#8B8B8B"/>
<path d="M80.959 16.3827V18.5273H83.109H85.2591V16.3827V14.2381H83.109H80.959V16.3827Z" fill="#8B8B8B"/>
<path d="M90.0369 16.3828V18.5274H87.8868H85.7368V20.6244V22.769L87.7913 22.912L89.798 23.055L89.9413 25.2949L90.0847 27.5825H87.9346H85.7368V31.8241V36.1134L87.7913 36.2563L89.798 36.3993L89.9413 41.0698L90.0847 45.7404L87.7913 45.5974L85.4979 45.4544L85.259 43.3098C85.0201 41.1651 85.0201 41.1651 83.0133 41.0222L80.9588 40.8792V34.207V27.5825H78.8088H76.6587V34.2547V40.9269H78.8088H80.9588V45.4544V49.9819H85.4979H90.0369V52.3649V54.7478H85.4979H80.9588V56.8448V58.9894L83.2522 59.1324L85.4979 59.2753L85.6412 63.6599L85.7845 68.0921H87.8868H90.0369V65.9475V63.8029H92.1392H94.2892L94.4326 61.5153L94.5759 59.2753L96.6304 59.1324L98.6371 58.9894V56.8448V54.7478H96.4393H94.2892L94.4326 52.4602L94.5759 50.2202H96.726H98.876L99.0194 52.4602L99.1627 54.7478H101.313H103.415V56.8924V59.037H105.517H107.667L107.811 56.9877L107.954 54.9861L112.636 54.8431L117.271 54.7001V56.8924V59.037H119.421H121.571V65.6139C121.571 69.2359 121.428 72.3337 121.284 72.4767C120.902 72.9056 117.558 71.9048 117.175 71.2376C116.984 70.9516 116.793 70.2368 116.793 69.6172C116.793 68.5687 116.698 68.5687 110.152 68.5687H103.463L103.32 66.2811L103.176 64.0412L99.0194 63.8982L94.8148 63.7552V65.8998V68.0445L96.8693 68.1875L98.876 68.3304L99.0194 70.5704L99.1627 72.858H96.7738H94.337V70.7133V68.5687H92.1869H90.0369V70.7133V72.858H85.4979H80.9588V70.7133V68.5687H76.4198H71.8808V70.6657V72.8103L69.6352 72.9533L67.3417 73.0963L67.294 75.0026L67.2462 76.9089L60.5093 77.0519L53.7247 77.1949V79.2919V81.4365H55.827H57.977L58.1204 83.6764L58.2637 85.964L62.7072 86.107L67.1506 86.25L67.0073 90.8728L66.864 95.4957L65.4306 95.5434C64.6661 95.591 63.7105 95.6387 63.3761 95.6863C62.9461 95.734 62.8027 96.3536 62.8983 97.7357L63.0416 99.785H67.1029H71.1641L71.403 97.6403L71.6419 95.4957L73.9353 95.3527L76.1809 95.2098V93.0651V90.9682H74.0786C71.5463 90.9682 71.403 90.6822 71.403 86.2023C71.403 81.7224 71.5463 81.4365 74.0786 81.4365H76.1809V79.2919V77.1472H78.5699H80.9588V81.6748C80.9588 84.9632 80.8155 86.2023 80.3855 86.25C80.051 86.25 79.1432 86.3453 78.331 86.3453C76.9932 86.4406 76.8976 86.5836 76.7543 88.5852L76.6109 90.7299H80.8155H85.0201L85.259 86.2023L85.4979 81.6748H87.6479H89.798L90.0369 83.8194C90.2758 85.964 90.2758 85.964 92.3303 86.107L94.337 86.25V81.7224V77.1472H97.2038C98.7805 77.1472 100.071 77.2902 100.071 77.4808C100.071 77.7191 99.4016 78.8153 98.6371 80.0067C96.3915 83.2475 94.9104 86.7266 94.7192 88.8235L94.5759 90.7299L90.1802 90.8728L85.7368 91.0158V97.6403V104.265L87.7913 104.408C89.6546 104.551 89.798 104.646 89.9413 106.028C90.0847 107.315 89.8458 107.649 88.3646 108.554C87.2179 109.221 86.3579 110.27 85.7368 111.7C84.8767 113.749 84.7334 113.844 82.87 113.844H80.9588V104.837C80.9588 95.877 80.9588 95.8293 79.9077 95.591C77.1365 94.8761 76.8976 95.2098 76.6587 100.071L76.4198 104.551L71.8808 104.789L67.3417 105.027V109.078V113.129L71.8808 113.368L76.4198 113.606V117.895V122.184L74.1742 122.327L71.8808 122.47V124.615V126.712H76.4198H80.9588V124.567C80.9588 122.995 81.1499 122.423 81.6755 122.423C82.2489 122.423 82.3922 123.138 82.3922 125.854C82.3922 127.76 82.5355 129.81 82.6789 130.429L83.0133 131.525L77.3276 131.382L71.6419 131.239L71.4985 129.19L71.3552 127.141L69.3485 127.284C67.4851 127.427 67.3417 127.522 67.2462 128.857C67.2462 129.619 67.1506 130.572 67.1506 130.858C67.1029 131.287 66.3384 131.478 64.9528 131.478H62.8027V138.102V144.727L64.7617 144.917C65.8128 145.013 66.7684 145.013 66.9117 144.87C67.0073 144.774 67.1029 143.726 67.1029 142.582V140.533H69.4918H71.8808V145.06C71.8808 149.54 71.8808 149.588 73.0753 149.588C74.222 149.588 75.1298 150.732 75.8942 153.258C76.2287 154.354 76.1809 154.354 71.6897 154.354H67.1029V152.209V150.065H64.9528H62.8027V156.784V163.457L64.8572 163.314C66.864 163.171 66.864 163.171 67.1029 161.026L67.3417 158.881H71.8808H76.4198V161.026V163.171L74.1742 163.314L71.8808 163.457V165.554V167.651L74.1742 167.793L76.4198 167.936L76.5631 169.938L76.7065 171.987H78.8565H80.9588V176.515V181.043H83.1089H85.259V174.656V168.222L83.2522 168.079L81.1977 167.936L81.0544 165.697L80.911 163.457L82.9656 163.314C84.9723 163.171 85.0201 163.123 85.1634 161.36C85.259 160.025 85.5456 159.596 86.1668 159.596C86.6446 159.596 87.7435 159.453 88.5557 159.31L90.0369 159.024V165.506V171.987H92.1869H94.337V165.554V159.12H92.9514C90.9925 159.12 90.7058 158.357 92.3303 157.499C93.0948 157.118 94.8148 155.593 96.2004 154.116C98.016 152.114 98.6849 151.59 98.876 152.162C99.0194 152.59 99.2105 153.258 99.3538 153.687C99.4972 154.211 100.071 154.354 101.361 154.259C103.128 154.116 103.176 154.068 103.32 152.066C103.463 150.112 103.415 150.065 101.982 150.065C99.975 150.065 99.6883 148.968 101.217 146.728C102.316 145.06 102.651 144.87 104.466 144.87C107.906 144.87 108.193 145.108 108.193 147.491V149.588H110.295H112.445L112.589 151.828L112.732 154.116L115.025 154.259L117.319 154.401L117.175 156.641L117.032 158.881L108.097 159.024L99.1149 159.12V161.264V163.409H108.241H117.319L117.175 165.649L117.032 167.936L112.636 168.079L108.241 168.222L108.097 170.224L107.954 172.226L103.558 172.369L99.1149 172.512V179.136V185.808H96.726H94.337V181.233V176.706L92.3303 176.849L90.2758 176.992L90.1324 181.376L89.9891 185.761L85.5934 185.904L81.1977 186.047L81.0544 188.048L80.911 190.05L83.2045 190.193L85.4979 190.336L85.6412 192.576C85.7845 194.577 85.689 194.816 84.6856 194.959C84.0645 195.054 83.0133 195.006 82.2966 194.911C81.0544 194.768 80.9588 194.577 80.9588 192.671V190.574H76.4198C72.0241 190.574 71.8808 190.527 71.5941 189.43C71.4508 188.811 71.403 187.762 71.4985 187.19C71.6419 186.19 71.9286 186.047 73.9353 185.904L76.1809 185.761V179.089V172.464H74.0308H71.8808V174.609V176.753H64.9528H58.0248V165.554V154.306L53.6291 154.449L49.1856 154.592V158.881V163.171L51.479 163.314L53.7247 163.457V167.698C53.7247 172.702 53.8202 172.607 48.2301 172.369L44.8855 172.226L44.7422 169.986L44.5988 167.698H46.7489H48.9467V165.554V163.409H46.7967H44.6466V158.881V154.354H46.7967H48.899L49.0423 149.683C49.1379 146.014 49.329 145.06 49.9023 145.013C50.2846 144.965 52.2913 144.917 54.3458 144.87L58.0726 144.822L57.9292 142.773L57.7859 140.771L55.5403 140.628L53.2469 140.485V138.388V136.291L51.2401 136.148L49.1856 136.005L49.0423 129.19L48.899 122.423H51.0968H53.2469V120.278V118.133H51.0968H48.9467V113.606V109.078H51.3357H53.6769L53.8202 113.463L53.9636 117.895L56.0181 118.038L58.0248 118.181V120.326V122.423H55.8747H53.7247V124.567V126.712H55.827H57.977L58.1204 128.952L58.2637 131.239L60.3182 131.382L62.3249 131.525V124.853V118.133H60.1749H58.0248V111.461V104.837L53.6291 104.694L49.1856 104.551L49.0423 102.311L48.899 100.071L50.9535 99.9279C53.008 99.785 53.008 99.785 53.2469 97.6403L53.4858 95.4957L55.7792 95.3527L58.0248 95.2098V93.0651V90.9205L51.479 91.0635L44.8855 91.2065L44.6466 93.3034L44.4077 95.4004L40.1076 95.448L35.8075 95.4957V93.1128V90.7299L37.862 90.7775H39.9165L39.7731 88.6329L39.6298 86.4406H35.5686H31.5073L31.2684 95.4957L31.0295 104.551L28.7839 104.694L26.5383 104.837L26.3949 109.221L26.2516 113.606L24.1971 113.749L22.1904 113.892V116.036V118.133H24.3404H26.4905V120.278V122.423H21.9515H17.4602L17.3169 115.846L17.1736 109.317H15.0235H12.8734L12.7301 113.701L12.5868 118.133H10.4367H8.28662L8.42996 120.135C8.5733 122.184 8.5733 122.184 10.7234 122.423L12.8734 122.661V124.567V126.474L17.4125 126.712L21.9515 126.95L22.0948 129.238L22.2382 131.525L24.2449 131.382C26.2516 131.239 26.2516 131.239 26.4905 129.095L26.7294 126.95H33.4185H40.1076L40.2509 129.19L40.3943 131.478H42.5443H44.6466V133.861V136.244H42.4965H40.3465V138.388V140.485L35.9508 140.628L31.5073 140.771L31.364 142.773L31.2207 144.774L37.8142 144.917L44.4077 145.06V147.443V149.826L39.9642 149.969L35.5208 150.112L35.6641 152.114L35.8075 154.116L38.1009 154.259L40.3943 154.401L40.2509 156.641L40.1076 158.881L37.9575 159.12L35.8075 159.358V161.264V163.171L38.1009 163.314L40.3465 163.457V165.601C40.3465 166.745 40.1554 167.746 39.8687 167.746C39.6298 167.793 38.9609 167.889 38.4353 167.936C37.9097 167.984 37.0497 168.079 36.4764 168.127C35.6641 168.175 35.5208 168.461 35.6641 169.938C35.8075 171.701 35.8552 171.749 37.9575 171.987L40.1076 172.226L40.2509 174.513L40.3943 176.753H42.4965H44.5988L44.7422 181.138L44.8855 185.57H46.7967H48.7078L48.9467 183.425L49.1856 181.281L53.6291 181.138L58.0248 180.995V185.808V190.574H55.8747H53.7247V192.719V194.863H55.8747H58.0248V197.246V199.629H55.8747H53.7724L53.6291 204.014L53.4858 208.446L51.3357 208.684L49.1856 208.923L49.0423 211.21L48.899 213.45H46.7489H44.5988L44.7422 215.261L44.8855 217.025L51.4313 217.168L57.977 217.311L58.1204 215.261C58.2637 213.212 58.2637 213.212 60.2704 213.069L62.2771 212.926L62.4205 208.541L62.5638 204.157L64.7617 204.014C66.9595 203.871 67.0073 203.871 67.1506 205.444C67.2462 206.301 67.2462 208.398 67.1029 210.114L66.864 213.212L64.8572 213.355C62.8027 213.498 62.8027 213.498 62.8027 215.404V217.263H69.4918H76.1809V212.974V208.637L80.8633 208.78L85.4979 208.923L85.6412 213.117L85.7845 217.311L87.7913 217.168L89.798 217.025L89.9413 212.831L90.0847 208.637L92.3303 208.78L94.5759 208.923L94.7192 210.924C94.8626 212.926 94.8626 212.926 96.8693 213.069C98.876 213.212 98.876 213.212 99.0194 215.214L99.1627 217.263H103.463H107.715V215.404C107.715 213.498 107.715 213.498 105.708 213.355C103.654 213.212 103.654 213.212 103.415 211.067L103.176 208.923L101.026 208.684C98.6371 208.398 98.7805 208.78 98.6849 202.822L98.6371 199.629H96.726C94.8148 199.629 94.8148 199.629 94.8148 201.488C94.8148 203.728 93.9548 204.49 91.8525 204.3C90.3236 204.157 90.2758 204.062 90.1324 201.917L89.9891 199.629L91.8047 199.582C92.8081 199.534 93.7637 199.534 94.0026 199.582C94.1937 199.582 94.337 198.676 94.337 197.485C94.337 195.245 94.337 195.245 91.7092 195.149C90.3236 195.102 90.2758 195.054 90.2758 192.719C90.2758 190.384 90.2758 190.336 91.8525 190.193C93.9548 190.002 94.8148 190.765 94.8148 193.005C94.8148 194.768 94.8148 194.816 96.8693 194.959C98.876 195.102 98.876 195.102 99.1149 197.246L99.3538 199.391L103.797 199.534L108.193 199.677V201.774V203.919H112.493H116.793V201.774V199.629H121.571H126.349V201.774V203.919H128.499H130.649V199.677C130.649 194.72 130.84 194.863 125.394 194.959L121.81 195.054L121.667 190.431L121.523 185.808H126.062H130.601L130.745 183.521L130.888 181.281L133.182 181.138L135.427 180.995V174.561V168.127L133.182 168.27C130.984 168.413 130.888 168.461 130.888 169.843C130.84 170.653 130.697 171.558 130.506 171.892C129.98 172.655 126.54 172.655 126.206 171.844C126.11 171.511 126.015 169.557 126.062 167.46L126.11 163.647L130.649 163.409L135.188 163.171V158.881V154.592H133.038C130.888 154.592 130.888 154.592 130.84 156.26C130.793 157.166 130.745 158.214 130.697 158.548C130.649 159.024 129.55 159.12 126.254 159.024L121.81 158.881L121.667 152.066L121.523 145.299H116.984C112.541 145.299 112.445 145.251 112.589 144.25C112.684 143.392 113.066 143.154 114.261 143.106C116.841 142.963 118.418 142.439 119.66 141.248C120.663 140.295 121.762 139.961 125.585 139.484C129.933 138.96 130.315 138.96 130.888 139.77C131.605 140.724 135.14 140.676 135.236 139.675C135.284 139.389 135.332 138.912 135.379 138.674C135.379 138.436 135.905 138.055 136.478 137.864C137.099 137.673 138.103 137.149 138.819 136.625C139.679 135.958 140.635 135.767 142.164 135.862L144.266 136.005L144.41 138.245L144.553 140.533H146.703H148.805V142.82V145.108L150.669 144.917C152.962 144.679 153.249 145.06 153.535 148.778C153.583 149.493 153.918 149.636 155.638 149.493C157.644 149.35 157.644 149.35 157.883 147.205C158.122 145.06 158.122 145.06 160.177 144.917L162.231 144.774L162.088 142.773C161.945 140.771 161.945 140.771 159.938 140.628C157.931 140.485 157.931 140.485 157.788 138.484L157.644 136.482L153.249 136.339L148.805 136.196V133.861V131.478H153.344H157.883V133.622V135.767H160.033H162.184V131.478V127.236L157.788 127.093L153.344 126.95L153.201 124.663L153.058 122.423H150.955H148.853L148.71 124.663L148.566 126.95L146.56 127.093C144.601 127.236 144.505 127.189 144.505 125.902C144.505 123.185 144.983 122.47 146.846 122.327C147.802 122.232 148.614 121.898 148.614 121.565C148.662 121.279 148.71 120.326 148.758 119.563C148.805 118.181 148.901 118.133 150.955 118.133H153.105V115.989V113.844H150.955C149.57 113.844 148.805 113.654 148.758 113.225C148.758 112.939 148.71 111.89 148.662 110.985C148.566 109.555 148.375 109.317 147.229 109.174C146.225 109.031 145.747 108.602 145.222 107.315C143.932 104.217 143.597 104.313 153.344 104.313H162.184V102.168V100.023H155.494C148.232 100.023 148.566 100.166 148.758 97.3544C148.901 95.7817 147.85 95.3527 144.266 95.4957C142.451 95.5434 140.778 95.6387 140.587 95.6863C140.396 95.6863 140.205 96.6395 140.11 97.7357L139.966 99.785L137.577 100.119C136.287 100.309 134.472 100.595 133.659 100.786C132.656 100.976 132.083 100.881 132.083 100.595C132.083 100.309 132.752 100.023 133.612 99.9279C134.997 99.785 135.14 99.642 135.332 97.9263C135.475 96.5442 135.284 95.877 134.71 95.448C133.994 94.9238 133.994 94.5425 134.472 92.5409C135.045 90.2056 135.332 88.5376 135.379 87.0125C135.427 86.393 135.857 86.2023 137.577 86.2023H139.727V84.0577V81.9131H137.625H135.475L135.332 79.6255L135.188 77.3855L133.229 77.2425C131.653 77.1472 131.223 77.2902 130.84 78.1004C130.41 79.1012 130.267 79.0059 128.117 76.7183C124.82 73.1916 124.963 72.9056 130.554 72.7627L135.188 72.6197L135.332 70.5704L135.475 68.5687H130.936C128.404 68.5687 126.301 68.4257 126.301 68.1875C126.11 67.0913 126.062 64.899 126.254 64.3748C126.349 64.0412 127.305 63.8029 128.547 63.8029H130.601L130.745 61.5153L130.888 59.2753L133.038 59.037C135.188 58.7987 135.188 58.7987 135.332 56.7494L135.475 54.7001L137.721 54.8431L139.966 54.9861L140.11 56.9877C140.253 58.9894 140.253 58.9894 142.26 59.1324L144.266 59.2753L144.41 61.5153L144.553 63.8029H142.403H140.205V65.8998V68.0445L142.26 68.1875L144.266 68.3304L144.41 70.5704L144.553 72.858H142.403H140.205V75.0026V77.1949L144.41 77.0519L148.566 76.9089L148.662 75.2409C148.662 74.3354 148.758 73.4299 148.758 73.1916C148.805 73.0009 149.904 72.858 151.242 72.858H153.679L153.488 74.8596L153.344 76.9089H157.644H161.945L162.088 74.8596L162.231 72.858H160.081H157.931L157.788 68.4257L157.644 64.0412L153.249 63.8982L148.805 63.7552V61.42V59.037H155.494H162.184V56.8924V54.7478L153.249 54.6525L144.266 54.5095L144.41 53.318C144.457 52.6508 144.457 51.6977 144.314 51.1734C144.075 50.2679 143.693 50.2202 137.768 50.3156C134.328 50.3632 131.366 50.5538 131.175 50.6968C131.031 50.8875 130.888 51.793 130.888 52.7461V54.5095L126.206 54.6525L121.523 54.7954L121.667 52.5078L121.81 50.2202L123.817 50.0773C125.824 49.9343 126.397 49.3624 126.11 47.7897C126.015 47.2654 125.919 46.5982 125.919 46.2646C125.871 45.8833 125.107 45.6927 123.721 45.6927H121.523L121.667 41.0222L121.81 36.3993L130.793 36.2563L139.727 36.161V34.0164V31.8718H137.577C136.383 31.8718 135.427 31.6335 135.379 31.3952C135.379 31.1092 135.332 30.2037 135.284 29.3459C135.284 27.8685 135.14 27.8208 133.086 27.5825L130.888 27.3442L130.745 25.2949L130.601 23.2933H126.062H121.571V25.1519C121.571 26.6293 121.762 27.1059 122.527 27.3442C123.052 27.4872 123.673 27.4872 123.96 27.3442C124.247 27.2012 124.868 27.2012 125.394 27.3442C126.158 27.5825 126.349 28.0591 126.349 29.7748V31.8718H123.96H121.571V29.7271V27.5825H117.032H112.493V29.7271V31.8718H108.002H103.463L103.32 29.8225L103.176 27.8208L98.876 27.5825L94.5759 27.3442V25.1996V23.055H98.876H103.176L103.415 25.1996C103.654 27.2012 103.75 27.3442 105.087 27.3919C107.62 27.4872 107.715 27.3442 107.715 22.769V18.5274H101.026H94.337V16.3828V14.2382H92.1869H90.0369V16.3828ZM98.876 40.9269V45.4544H96.726H94.5759L94.4326 41.4511C94.2415 36.2563 94.337 36.0657 96.8215 36.2563L98.876 36.3993V40.9269ZM117.175 43.0238C117.271 48.028 117.128 49.7437 116.698 50.0773C116.077 50.4585 105.087 50.5062 104.036 50.1249C103.558 49.9343 103.415 48.1233 103.415 43.3574C103.415 39.7354 103.558 36.6376 103.75 36.447C103.941 36.304 106.999 36.2087 110.534 36.2563L117.032 36.3993L117.175 43.0238ZM120.568 80.4833C127.066 84.01 128.881 91.2541 124.868 97.831C123.53 100.119 122.813 100.738 120.186 101.977C117.223 103.407 116.841 103.455 113.114 103.216C109.435 102.93 109.101 103.026 107.763 104.074C105.613 105.933 105.135 105.647 105.47 102.787C105.756 100.595 105.613 100.071 104.371 98.1169C102.746 95.5434 102.221 92.6362 102.651 88.8712C102.937 86.7742 103.415 85.6781 104.944 83.7717C108.719 79.0059 115.217 77.6238 120.568 80.4833ZM44.4077 102.216V104.551H40.1076H35.8075L35.6641 102.692C35.4252 99.8326 35.5208 99.785 40.1554 99.8326L44.4077 99.8803V102.216ZM96.9171 100.547C98.6371 101.882 98.6371 104.17 96.9649 104.598C94.9581 105.075 94.337 104.551 94.337 102.263C94.337 99.2607 94.8626 98.9271 96.9171 100.547ZM137.099 107.649C138.772 108.268 139.441 110.174 138.724 112.367C138.055 114.416 134.472 118.133 133.134 118.133C130.936 118.133 130.363 121.565 132.513 121.851C133.277 121.994 134.137 121.517 135.188 120.516C137.004 118.801 138.294 118.848 138.294 120.659C138.294 122.232 134.567 125.616 132.465 125.997C128.881 126.664 127.544 125.092 127.591 120.135V117.609L126.922 119.42C125.824 122.47 125.202 123.471 123.626 125.187C122.049 126.855 121.619 126.95 118.227 126.14C117.701 126.045 117.462 126.474 117.367 127.856L117.223 129.714L119.517 129.428C128.834 128.237 133.468 127.999 134.233 128.618C135.379 129.571 134.949 131.097 133.373 131.525C132.608 131.716 130.267 132.097 128.117 132.383C117.51 133.765 117.08 133.861 115.981 135.052C114.787 136.387 113.688 136.577 113.258 135.529C112.875 134.528 109.913 134.623 104.896 135.767C97.1082 137.578 97.3471 137.435 96.4393 139.961C95.9615 141.2 95.2926 142.725 94.9581 143.392C94.6237 144.06 94.337 144.822 94.337 145.156C94.337 145.442 93.2381 146.967 91.9481 148.539C88.6035 152.495 85.3067 153.448 82.7744 151.161C81.6755 150.208 81.6277 145.966 82.5833 143.631C83.9689 140.39 89.0813 135.767 92.617 134.576C93.8114 134.194 94.1459 133.67 94.6237 131.716C94.9581 130.429 95.197 129.286 95.1015 129.238C95.0059 129.143 94.3848 129.381 93.6681 129.762C92.0914 130.572 90.7058 130.286 89.798 128.952C88.7946 127.522 88.8902 125.568 90.2758 120.945C90.8969 118.753 91.4703 116.465 91.4703 115.941C91.4703 114.607 92.4736 113.797 93.7637 114.178C95.1493 114.511 95.1493 116.227 93.8592 120.945C92.8081 124.758 93.047 125.997 94.7192 124.996C95.8182 124.281 98.016 119.897 98.6849 116.942C99.3538 114.035 100.262 112.51 101.743 111.843C102.603 111.461 103.081 111.461 103.558 111.843C104.084 112.319 103.941 113.368 102.651 118.229C101.791 121.47 100.644 125.568 100.118 127.427C99.5449 129.238 99.1149 131.144 99.1149 131.668C99.1149 132.622 98.9716 132.622 106.521 131.335C108.91 130.906 111.49 130.477 112.254 130.429C113.401 130.334 113.735 130.048 113.831 128.952C113.974 127.808 113.831 127.665 112.636 127.665C111.872 127.665 111.012 127.427 110.725 127.141C110.295 126.712 109.77 126.903 108.623 127.856C107.476 128.857 106.807 129.095 105.852 128.857C103.415 128.237 102.937 127.332 102.937 123.424C102.985 119.277 104.227 115.751 106.76 112.748C108.002 111.271 108.527 110.985 110.104 110.985C111.108 110.985 112.445 110.794 113.114 110.556C115.647 109.603 116.077 111.747 114.643 118.038C113.831 121.517 113.735 123.376 114.357 123.376C114.93 123.376 115.073 122.899 116.315 116.465C117.653 109.698 117.844 109.364 119.947 109.793C121.046 109.984 121.906 109.841 122.622 109.317C125.107 107.649 127.209 109.078 127.639 112.796L127.926 115.322L129.311 112.843C131.031 109.698 131.939 108.649 133.755 107.839C135.523 107.077 135.57 107.077 137.099 107.649ZM44.6466 115.751V122.47L37.862 122.327L31.0295 122.184L30.8862 116.275C30.8384 112.986 30.8862 110.032 30.9818 109.698C31.1729 109.221 32.8451 109.078 37.9575 109.078H44.6466V115.751ZM121.667 174.227L121.81 176.515L124.103 176.658L126.397 176.801L126.254 179.041L126.11 181.281H123.96H121.81L121.667 178.993L121.523 176.753H116.984H112.493V174.37V171.987H116.984H121.523L121.667 174.227ZM67.2462 181.614C67.3417 181.948 67.4373 182.997 67.3895 183.902L67.3417 185.57H64.9528C62.6116 185.57 62.5638 185.57 62.4205 183.997C62.3249 183.092 62.3727 182.091 62.516 181.71C62.8505 180.852 66.9117 180.804 67.2462 181.614ZM117.175 188.048L117.319 194.863L112.493 194.911C109.865 194.959 107.19 194.959 106.521 194.959C103.128 194.959 103.415 195.578 103.415 187.953V180.995L110.247 181.138L117.032 181.281L117.175 188.048ZM67.1029 191.051C67.3895 191.575 67.5329 192.576 67.4851 193.338C67.3417 194.577 67.4373 194.625 69.5874 194.768L71.833 194.911L71.9763 197.151L72.1197 199.391L78.9521 199.534L85.7845 199.677L85.6412 201.917L85.4979 204.157L79.0954 204.3C74.7953 204.395 72.5019 204.252 72.0719 203.871C71.6897 203.585 71.403 202.489 71.403 201.488V199.677L67.0073 199.534L62.5638 199.391L62.4205 195.435C62.3249 192.909 62.4683 191.194 62.8505 190.765C63.7105 189.716 66.4817 189.907 67.1029 191.051Z" fill="#8B8B8B"/>
<path d="M108.384 41.5464C108.241 41.9753 108.193 42.9761 108.288 43.834C108.432 45.5973 109.244 46.0263 111.346 45.502C112.397 45.2161 112.541 44.9778 112.397 43.1668C112.254 41.2128 112.206 41.1651 110.439 41.0221C109.196 40.9268 108.575 41.0698 108.384 41.5464Z" fill="#8B8B8B"/>
<path d="M109.196 87.1077C107.858 88.4421 107.954 91.111 109.292 91.3493C109.817 91.4446 110.582 91.8735 111.012 92.3025C111.49 92.779 112.254 93.3509 112.732 93.6369C113.305 93.9228 113.496 94.3994 113.305 94.9237C112.827 96.2104 111.394 95.8768 110.056 94.2565C109.34 93.3509 108.575 92.8744 108.288 93.065C107.333 93.6369 107.667 95.2096 108.91 96.4487C110.247 97.8308 113.162 98.0691 114.643 96.973C115.455 96.4011 115.646 96.4011 116.076 97.0206C116.984 98.2598 117.94 97.2113 120.615 92.1595C122.622 88.2515 123.052 87.0124 122.622 86.5835C121.81 85.7733 121.045 86.6311 118.704 91.2063C116.411 95.5909 115.838 96.3534 115.838 94.9713C115.838 93.5416 114.548 92.0165 112.445 90.968C111.442 90.4438 110.582 89.6812 110.582 89.3C110.582 88.2038 112.827 88.3945 113.449 89.5383C114.213 90.968 115.36 90.7297 115.36 89.1093C115.36 87.3936 114.5 86.6788 112.111 86.3452C110.582 86.1545 110.008 86.2975 109.196 87.1077Z" fill="#8B8B8B"/>
<path d="M133.898 111.795C133.516 112.271 132.895 113.129 132.608 113.701C132.13 114.607 132.178 114.797 132.751 114.797C133.707 114.797 135.331 113.272 135.523 112.224C135.714 110.985 134.806 110.746 133.898 111.795Z" fill="#8B8B8B"/>
<path d="M121.619 113.511C120.042 115.417 118.465 122.899 119.66 122.899C121.858 122.899 123.96 119.134 123.96 115.226C123.96 113.272 123.817 112.891 123.052 112.891C122.574 112.891 121.906 113.177 121.619 113.511Z" fill="#8B8B8B"/>
<path d="M109.244 115.083C107.667 116.179 106.807 118.229 106.712 120.945C106.473 127.331 110.2 123.614 111.346 116.322C111.681 114.082 111.155 113.749 109.244 115.083Z" fill="#8B8B8B"/>
<path d="M89.4157 141.105C87.0268 143.107 86.3579 144.06 85.689 146.347C85.1634 148.254 86.3579 148.635 87.9824 147.158C89.368 145.823 92.5692 139.723 92.0436 139.389C91.8047 139.246 90.658 140.009 89.4157 141.105Z" fill="#8B8B8B"/>
<path d="M35.6643 115.846C35.8077 117.895 35.8077 117.895 37.8622 118.038L39.8689 118.181V116.037V113.844H37.6711H35.521L35.6643 115.846Z" fill="#8B8B8B"/>
<path d="M108.193 187.905V190.098H110.391H112.541L112.397 188.048C112.254 186.047 112.254 186.047 110.247 185.904L108.193 185.761V187.905Z" fill="#8B8B8B"/>
<path d="M144.505 16.3829V18.5752L151.099 18.4322L157.645 18.2892V16.3829V14.4766L151.099 14.3336L144.505 14.1906V16.3829Z" fill="#8B8B8B"/>
<path d="M171.739 16.4306V18.5752L173.794 18.4322C175.8 18.2892 175.8 18.2892 175.944 16.2399L176.087 14.2383H173.937H171.739V16.4306Z" fill="#8B8B8B"/>
<path d="M180.913 29.8223L181.056 45.4542L196.059 45.5496C205.28 45.5972 211.348 45.4542 211.683 45.1683C212.304 44.6917 212.686 16.5733 212.065 15.0482C211.778 14.2857 210.488 14.238 196.298 14.238H180.817L180.913 29.8223ZM207.813 29.727V40.6884L196.489 40.8314L185.118 40.9267V29.727V18.5273L196.489 18.6226L207.813 18.7656V29.727Z" fill="#8B8B8B"/>
<path d="M189.896 29.7273V36.1611H196.346H202.796V29.7273V23.2934H196.346H189.896V29.7273Z" fill="#8B8B8B"/>
<path d="M71.8809 20.6246V22.8169H74.0787H76.2288L76.0854 20.7676C75.9421 18.7659 75.9421 18.7659 73.9354 18.623L71.8809 18.48V20.6246Z" fill="#8B8B8B"/>
<path d="M117.605 18.8136C117.414 19.0042 117.271 20.005 117.271 21.0059V22.8169H119.469H121.619L121.476 20.7676C121.332 18.8612 121.284 18.7659 119.66 18.623C118.704 18.5276 117.797 18.623 117.605 18.8136Z" fill="#8B8B8B"/>
<path d="M140.11 20.7674L139.966 23.055L137.673 23.1979L135.379 23.3409L135.523 25.2949C135.666 27.1536 135.762 27.2966 137.243 27.3919C139.871 27.5825 140.205 27.8685 140.205 29.9654V31.9194L142.212 31.7765C144.123 31.6335 144.219 31.5382 144.362 29.9654C144.649 27.4395 144.792 27.2013 146.369 27.3442C148.089 27.4872 148.662 26.9153 148.614 24.9613C148.566 23.6269 148.423 23.5316 146.56 23.3886C144.601 23.2456 144.505 23.1979 144.505 21.6252C144.505 19.004 144.123 18.5274 142.068 18.5274H140.253L140.11 20.7674Z" fill="#8B8B8B"/>
<path d="M167.296 18.8611C167.105 19.0041 166.961 22.0066 166.961 25.5333V31.8719H164.811H162.661V34.0165V36.1611H169.35H176.039V31.9195V27.6303L173.794 27.4873L171.5 27.3443L171.357 22.9121L171.214 18.5275H169.398C168.395 18.5275 167.439 18.6705 167.296 18.8611Z" fill="#8B8B8B"/>
<path d="M81.0545 25.2949C81.1978 27.3442 81.1978 27.3442 83.109 27.3442C85.0201 27.3442 85.0201 27.3442 85.1635 25.2949L85.3068 23.2933H83.109H80.9111L81.0545 25.2949Z" fill="#8B8B8B"/>
<path d="M153.535 23.3888C153.535 23.4841 153.392 24.199 153.296 25.0092C152.962 27.2491 153.87 27.6781 158.218 27.4874L161.944 27.2968L162.088 25.2951L162.231 23.2935H157.931C155.542 23.2935 153.583 23.3411 153.535 23.3888Z" fill="#8B8B8B"/>
<path d="M148.805 29.727V31.8716H150.955H153.105V29.727V27.5823H150.955H148.805V29.727Z" fill="#8B8B8B"/>
<path d="M144.505 33.9688V36.1611H146.608H148.758L148.662 34.1118L148.567 32.1102L146.56 31.9672L144.505 31.8242V33.9688Z" fill="#8B8B8B"/>
<path d="M148.805 38.7821V40.9268H150.955H153.105V38.7821V36.6375H150.955H148.805V38.7821Z" fill="#8B8B8B"/>
<path d="M157.883 38.7821V40.9268H160.033H162.183V38.7821V36.6375H160.033H157.883V38.7821Z" fill="#8B8B8B"/>
<path d="M72.072 41.5464C71.9287 41.9753 71.8809 42.9761 71.9765 43.834C72.1198 45.5973 72.9321 46.0263 75.0343 45.502C76.0855 45.2161 76.2288 44.9778 76.0855 43.1668C75.9421 41.2128 75.8944 41.1651 74.1265 41.0221C72.8843 40.9268 72.2631 41.0698 72.072 41.5464Z" fill="#8B8B8B"/>
<path d="M126.684 41.2129C126.492 41.4036 126.349 42.3567 126.349 43.3575C126.349 45.0733 126.445 45.2162 128.069 45.5022C130.219 45.8834 130.745 45.3592 130.554 43.0239C130.41 41.2606 130.315 41.1653 128.738 41.0223C127.782 40.927 126.875 41.0223 126.684 41.2129Z" fill="#8B8B8B"/>
<path d="M135.618 41.5466C135.475 41.9755 135.427 42.9764 135.523 43.8819C135.666 45.3593 135.762 45.4546 137.577 45.4546H139.489V43.31C139.489 41.1653 139.489 41.1653 137.673 41.0224C136.431 40.927 135.81 41.07 135.618 41.5466Z" fill="#8B8B8B"/>
<path d="M144.84 41.213C144.649 41.4036 144.505 43.4529 144.505 45.7882V50.0298L146.56 49.8868L148.567 49.7438V45.4546V41.1653L146.894 41.0223C145.939 40.927 145.031 41.0223 144.84 41.213Z" fill="#8B8B8B"/>
<path d="M153.536 41.022C153.249 42.5947 153.392 44.8347 153.775 45.1683C154.061 45.3589 155.065 45.5495 155.972 45.5019C157.645 45.4542 157.645 45.4542 157.645 43.3096V41.165L155.638 41.022C154.491 40.9267 153.583 40.9267 153.536 41.022Z" fill="#8B8B8B"/>
<path d="M162.661 43.0239C162.661 45.2162 162.757 45.3115 164.811 45.3115C166.961 45.3115 167.009 45.2639 166.866 43.1669C166.722 41.1652 166.722 41.1652 164.716 41.0223L162.661 40.8793V43.0239Z" fill="#8B8B8B"/>
<path d="M172.074 41.2129C171.883 41.4035 171.739 43.4528 171.739 45.7404C171.739 49.839 171.691 49.982 170.545 50.2679C169.924 50.4109 167.869 50.4586 166.006 50.3633L162.661 50.1726V52.4602V54.7478H164.811H166.913L167.057 59.1324L167.2 63.5646L169.207 63.7076L171.214 63.8506L171.357 61.563L171.5 59.2754L173.794 59.1324L176.039 58.9894L175.944 50.0773L175.8 41.1652L174.128 41.0222C173.173 40.9269 172.265 41.0222 172.074 41.2129Z" fill="#8B8B8B"/>
<path d="M67.2942 46.3122C67.1509 46.6935 67.1031 48.6475 67.1986 50.7445L67.342 54.5095L69.3965 54.6524C70.7821 54.7478 71.4032 54.6048 71.451 54.1759C71.4988 53.461 71.4988 50.5538 71.451 47.6943L71.4032 45.6927H69.492C68.2976 45.6927 67.4375 45.931 67.2942 46.3122Z" fill="#8B8B8B"/>
<path d="M157.883 47.8373V49.9819H160.033H162.183V47.8373V45.6927H160.033H157.883V47.8373Z" fill="#8B8B8B"/>
<path d="M17.6036 50.4109C17.5081 50.5063 17.4125 51.5547 17.4125 52.6985V54.7479H15.0236H12.6346V52.6032V50.4586H10.4845H8.33447V54.7479V59.0371H15.0236H21.7127V56.8925V54.7002L26.395 54.8432L31.0296 54.9861L31.1729 56.9878L31.3163 59.0371H33.4663H35.5686V56.8925V54.7479H37.7187H39.8688V52.6032V50.5063L28.8318 50.3633C22.7638 50.268 17.6992 50.3156 17.6036 50.4109Z" fill="#8B8B8B"/>
<path d="M77.7576 50.3632C76.802 50.5062 76.6587 50.7921 76.6587 52.6508V54.7954L78.7132 54.6524C80.7199 54.5095 80.7199 54.5095 80.8633 52.5555C81.0066 50.7921 80.8633 50.5538 79.9077 50.4108C79.2865 50.2679 78.331 50.2679 77.7576 50.3632Z" fill="#8B8B8B"/>
<path d="M181.199 50.506C180.961 50.649 180.817 51.6498 180.913 52.6507L181.056 54.5093L185.356 54.7476L189.656 54.9859L189.8 56.9876C189.943 58.9892 189.943 58.9892 191.95 59.1322L193.956 59.2752L194.1 61.5628L194.243 63.8504L196.25 63.7074C198.257 63.5644 198.257 63.5644 198.496 61.4198L198.734 59.2752L202.987 59.1322C206.092 59.0369 207.382 59.1799 207.669 59.6088C207.86 59.9424 208.051 61.9917 208.051 64.184V68.1396L210.106 67.9967L212.113 67.8537L212.208 62.373C212.399 54.3187 212.686 54.7953 207.43 54.6523L203.035 54.5093L202.891 52.5077L202.748 50.506L192.189 50.3631C186.407 50.2678 181.486 50.3631 181.199 50.506Z" fill="#8B8B8B"/>
<path d="M71.8809 56.8925V59.0371H74.0309H76.181V56.8925V54.7479H74.0309H71.8809V56.8925Z" fill="#8B8B8B"/>
<path d="M22.1904 61.6584V63.803H24.3405H26.4906V65.9477V68.0923H28.6406H30.7907V63.803V59.5138H26.4906H22.1904V61.6584Z" fill="#8B8B8B"/>
<path d="M35.6642 61.5154C35.8076 63.5647 35.8076 63.5647 37.9576 63.803L40.1077 64.0413V66.1859V68.3306L35.712 68.4735L31.2686 68.6165V70.7611V72.9058L37.8621 72.7628L44.4078 72.6198L44.6467 70.4752C44.8856 68.3306 44.8856 68.3306 46.9401 68.1876L48.9469 68.0446V63.7554V59.5138H42.21H35.5209L35.6642 61.5154Z" fill="#8B8B8B"/>
<path d="M76.6587 61.706V63.8506L78.7132 63.7076C80.7199 63.5646 80.7199 63.5646 80.8633 61.5153L81.0066 59.5137H78.8565H76.6587V61.706Z" fill="#8B8B8B"/>
<path d="M108.193 61.6581V63.8027H112.493H116.793V61.6581V59.5135H112.493H108.193V61.6581Z" fill="#8B8B8B"/>
<path d="M180.817 61.6584V63.803H182.967C185.07 63.803 185.118 63.8507 185.165 65.3281C185.213 66.1859 185.213 67.1868 185.165 67.4727C185.118 67.9017 185.786 68.0923 187.268 68.0923H189.418V63.803V59.5138H185.118H180.817V61.6584Z" fill="#8B8B8B"/>
<path d="M8.66893 64.089C8.47781 64.2796 8.33447 66.3289 8.33447 68.6642V72.9058L12.7779 72.7628L17.1736 72.6198V68.3306V64.0413L13.1124 63.8983C10.8668 63.8507 8.86004 63.8983 8.66893 64.089Z" fill="#8B8B8B"/>
<path d="M67.2941 64.9465C66.7685 67.1865 67.1986 67.8537 69.3964 67.9967L71.4031 68.1396V65.995V63.8027H69.492C67.8675 63.8027 67.533 63.9934 67.2941 64.9465Z" fill="#8B8B8B"/>
<path d="M171.739 65.9477V68.0923H176.039H180.34V65.9477V63.803H176.039H171.739V65.9477Z" fill="#8B8B8B"/>
<path d="M22.1904 70.7135V72.9058L24.2449 72.7628C26.2517 72.6198 26.2517 72.6198 26.2517 70.7135C26.2517 68.8071 26.2517 68.8071 24.2449 68.6642L22.1904 68.5212V70.7135Z" fill="#8B8B8B"/>
<path d="M62.8027 70.7133V72.8579H64.9528H67.1029V70.7133V68.5687H64.9528H62.8027V70.7133Z" fill="#8B8B8B"/>
<path d="M162.661 70.7133V72.8579H164.811H166.961V79.4824V86.1546L169.255 86.2975L171.5 86.4405L171.644 90.8251L171.787 95.2573H176.039H180.339V93.1127C180.339 91.3017 180.483 90.9681 181.438 90.7298C182.012 90.5868 183.015 90.5391 183.684 90.5868C184.783 90.7298 184.878 90.5868 184.878 88.5851V86.4405L180.435 86.2975L175.992 86.1546L176.135 83.9146L176.278 81.6747L180.722 81.5317L185.117 81.3887V79.2918V77.1471H180.578H176.039V75.0025V72.8579H173.65H171.261V70.7133V68.5686H166.961H162.661V70.7133Z" fill="#8B8B8B"/>
<path d="M180.817 70.7133V72.8579H182.967H185.118V70.7133V68.5687H182.967H180.817V70.7133Z" fill="#8B8B8B"/>
<path d="M189.896 70.7133V72.8103L194.291 72.9532L198.687 73.0962V75.0025C198.735 76.9089 198.735 76.9089 200.789 77.0518L202.796 77.1948V75.0502V72.8579H205.185H207.574V70.7133V68.5687H198.735H189.896V70.7133Z" fill="#8B8B8B"/>
<path d="M26.4907 77.1473V81.4365H28.6408H30.7909V77.1473V72.858H28.6408H26.4907V77.1473Z" fill="#8B8B8B"/>
<path d="M185.452 73.1915C185.356 73.4298 185.309 74.3353 185.309 75.2408C185.356 76.8612 185.404 76.9089 187.411 77.0518L189.418 77.1948V75.0502V72.8579H187.554C186.503 72.8579 185.547 73.0009 185.452 73.1915Z" fill="#8B8B8B"/>
<path d="M208.052 75.0025V77.1948L210.106 77.0518C212.113 76.9089 212.113 76.9089 212.113 75.0025C212.113 73.0962 212.113 73.0962 210.106 72.9532L208.052 72.8103V75.0025Z" fill="#8B8B8B"/>
<path d="M35.7595 77.8147C35.6162 78.1959 35.5684 79.1015 35.664 79.864C35.8073 81.0554 35.9984 81.1984 37.8618 81.3414L39.8685 81.4844V79.3397V77.1475H37.9574C36.7151 77.1475 35.9029 77.3858 35.7595 77.8147Z" fill="#8B8B8B"/>
<path d="M44.9809 77.4332C44.7898 77.6239 44.6465 78.6247 44.6465 79.6255V81.4365H46.8443H48.9944L48.8511 79.3872C48.7077 77.4809 48.6599 77.3856 47.0354 77.2426C46.0799 77.1473 45.1721 77.2426 44.9809 77.4332Z" fill="#8B8B8B"/>
<path d="M149.044 77.719C148.949 78.0526 148.758 79.101 148.71 80.0066C148.567 81.5793 148.471 81.6746 146.56 81.8176L144.505 81.9606V84.1052V86.2021H148.806H153.106V81.6746V77.1471H151.194C150.048 77.1471 149.188 77.3853 149.044 77.719Z" fill="#8B8B8B"/>
<path d="M194.196 79.2442V81.4365H196.394H198.544L198.4 79.3872C198.257 77.3856 198.257 77.3856 196.25 77.2426L194.196 77.0996V79.2442Z" fill="#8B8B8B"/>
<path d="M203.178 79.387L203.035 81.6746L200.741 81.8176L198.448 81.9606L198.591 83.9622L198.734 85.9639H205.424H212.113V84.0575V82.1512L209.963 81.9129L207.812 81.6746L207.669 79.387L207.526 77.1471H205.424H203.321L203.178 79.387Z" fill="#8B8B8B"/>
<path d="M8.33447 84.1054V86.25L10.389 86.107C12.3957 85.964 12.3957 85.964 12.539 83.9147L12.6824 81.9131H10.5323H8.33447V84.1054Z" fill="#8B8B8B"/>
<path d="M17.4125 86.4406V90.9681H12.8734H8.28662L8.42996 95.3527L8.5733 99.7849L10.58 99.9279C12.3001 100.071 12.5868 100.262 12.8734 101.405C13.0168 102.168 13.1123 103.026 13.0168 103.407C12.9212 103.884 13.4946 104.122 15.0235 104.312L17.1736 104.551L17.4125 106.695C17.6513 108.84 17.6513 108.84 19.7059 108.983L21.7126 109.126V104.598V100.023H19.6103C17.2691 100.023 17.0302 99.642 17.3169 96.7825C17.508 95.305 17.6036 95.2574 19.6103 95.2574H21.7126V93.1604C21.7126 90.8252 22.1426 90.4915 24.866 90.4915H26.5383L26.3949 86.2976L26.2516 82.1513L21.8559 82.0084L17.4125 81.8654V86.4406Z" fill="#8B8B8B"/>
<path d="M40.3467 84.1054V86.25L42.4012 86.107C44.4079 85.964 44.4079 85.964 44.5513 83.9147L44.6946 81.9131H42.5445H40.3467V84.1054Z" fill="#8B8B8B"/>
<path d="M157.979 83.9147C158.122 85.964 158.122 85.964 160.177 86.107L162.183 86.25V84.1054V81.9131H159.986H157.835L157.979 83.9147Z" fill="#8B8B8B"/>
<path d="M140.205 88.4425V90.7301H142.116C143.741 90.7777 144.123 90.5871 144.314 89.6816C144.505 89.062 144.457 88.0612 144.314 87.394C144.075 86.3932 143.741 86.2025 142.116 86.2025H140.205V88.4425Z" fill="#8B8B8B"/>
<path d="M162.661 88.4424V90.73L164.429 90.6347C165.432 90.587 166.388 90.5393 166.627 90.5393C166.818 90.4917 166.961 89.6338 166.961 88.633C166.961 86.6314 166.436 86.2024 164.047 86.2024C162.709 86.2024 162.661 86.2978 162.661 88.4424Z" fill="#8B8B8B"/>
<path d="M135.427 93.1127V95.2573H137.577H139.727V93.1127V90.9681H137.577H135.427V93.1127Z" fill="#8B8B8B"/>
<path d="M148.805 93.1127V95.2573H155.494H162.183V93.1127V90.9681H155.494H148.805V93.1127Z" fill="#8B8B8B"/>
<path d="M189.896 93.1127V95.2573H191.95H193.957L193.813 93.1127L193.622 90.9681H191.759H189.896V93.1127Z" fill="#8B8B8B"/>
<path d="M198.687 91.6352C198.543 92.0164 198.496 92.9219 198.591 93.6845C198.735 94.8759 198.926 95.0189 200.885 95.2572L203.035 95.4955V97.6401V99.7847L200.885 100.023L198.735 100.261V106.695V113.129L200.741 113.272L202.748 113.415L202.891 108.983L203.035 104.551L207.574 104.312L212.113 104.074V102.168V100.261L209.963 100.023L207.813 99.7847L207.669 95.3525L207.526 90.9679H203.226C199.977 90.9679 198.878 91.1109 198.687 91.6352Z" fill="#8B8B8B"/>
<path d="M22.8116 95.5911C22.4293 95.7341 22.1904 96.6396 22.1904 97.8311V99.8804L24.2449 99.8327L26.2517 99.7851V97.6881C26.2517 95.7341 26.1561 95.5911 24.8183 95.4958C24.0538 95.4005 23.0982 95.4481 22.8116 95.5911Z" fill="#8B8B8B"/>
<path d="M162.852 95.6864C162.757 95.7817 162.661 96.7826 162.661 97.8787V99.8804L166.866 99.8327L171.022 99.7851V97.6881V95.5911L167.057 95.5435C164.859 95.4958 162.948 95.5911 162.852 95.6864Z" fill="#8B8B8B"/>
<path d="M181.247 95.7816C180.961 95.9245 180.817 96.9254 180.913 97.9262L181.056 99.7849L184.162 99.8802C189.083 100.071 189.513 99.8802 189.322 97.4973L189.179 95.4956H185.452C183.397 95.448 181.534 95.5909 181.247 95.7816Z" fill="#8B8B8B"/>
<path d="M194.386 95.9725C194.243 96.3061 194.195 97.3069 194.291 98.2124C194.434 99.6898 194.53 99.7852 196.345 99.7852H198.257V97.6405V95.4959L196.441 95.4006C195.294 95.4006 194.53 95.5912 194.386 95.9725Z" fill="#8B8B8B"/>
<path d="M58.2161 100.691C58.0727 101.072 58.025 101.977 58.1205 102.74C58.2639 103.931 58.455 104.074 60.3184 104.217L62.3251 104.36V102.216V100.023H60.4139C59.1717 100.023 58.3594 100.262 58.2161 100.691Z" fill="#8B8B8B"/>
<path d="M171.644 102.263L171.5 104.551L167.105 104.694L162.661 104.837V106.934V109.031L167.105 109.174L171.5 109.317L171.644 117.99L171.739 126.664L176.183 126.807L180.578 126.95L180.722 131.335L180.865 135.719L182.872 135.862L184.878 136.005L185.022 140.628L185.165 145.299H176.039H166.961V147.396V149.54L169.255 149.683L171.5 149.826L171.644 152.114L171.787 154.401L173.794 154.258L175.8 154.115L175.944 151.828L176.087 149.588H182.728H189.37L189.513 142.773L189.656 136.005H191.806H193.957L194.1 138.245L194.243 140.533H198.543H202.796V138.436C202.796 136.101 203.226 135.767 205.949 135.767C207.621 135.767 207.621 135.767 207.478 133.718C207.335 131.716 207.335 131.716 205.185 131.478L203.035 131.239V129.095V126.95L205.328 126.807L207.574 126.664V124.567V122.47L205.328 122.327L203.035 122.184L202.891 120.135L202.748 118.133H200.598H198.496V115.989V113.844H196.393C194.912 113.844 194.195 113.606 194.004 113.082C193.861 112.653 193.718 109.555 193.718 106.171V100.023H191.854H189.943L189.8 102.263L189.656 104.551H185.117H180.578L180.435 102.263L180.292 100.023H176.039H171.787L171.644 102.263ZM189.656 115.75V122.184L182.872 122.327L176.039 122.47V115.75V109.031L182.872 109.174L189.656 109.317V115.75ZM198.496 122.661V127.188H196.393C194.912 127.188 194.195 126.95 194.004 126.426C193.622 125.425 193.622 118.848 194.052 118.467C194.195 118.276 195.294 118.133 196.441 118.133H198.496V122.661Z" fill="#8B8B8B"/>
<path d="M180.817 116.037V118.181L182.872 118.038C184.879 117.895 184.879 117.895 185.022 115.846L185.165 113.844H183.015H180.817V116.037Z" fill="#8B8B8B"/>
<path d="M8.42996 106.791C8.5733 108.84 8.5733 108.84 10.4845 108.84C12.3956 108.84 12.3956 108.84 12.539 106.791L12.6823 104.789H10.4845H8.28662L8.42996 106.791Z" fill="#8B8B8B"/>
<path d="M158.218 109.412C158.027 109.555 157.883 110.556 157.883 111.557V113.368H160.033H162.183V111.223V109.078H160.368C159.364 109.078 158.361 109.221 158.218 109.412Z" fill="#8B8B8B"/>
<path d="M208.052 111.223V113.415L210.106 113.272C212.113 113.129 212.113 113.129 212.113 111.223C212.113 109.316 212.113 109.316 210.106 109.173L208.052 109.03V111.223Z" fill="#8B8B8B"/>
<path d="M162.661 116.037V118.181L164.716 118.038C166.722 117.895 166.722 117.895 166.866 115.846L167.009 113.844H164.859H162.661V116.037Z" fill="#8B8B8B"/>
<path d="M153.535 118.324C153.392 118.467 153.392 119.42 153.487 120.469L153.679 122.423H157.931H162.183V120.278V118.134H157.979C155.638 118.134 153.631 118.229 153.535 118.324Z" fill="#8B8B8B"/>
<path d="M208.052 120.278V122.47L210.106 122.327C212.113 122.184 212.113 122.184 212.113 120.278C212.113 118.372 212.113 118.372 210.106 118.229L208.052 118.086V120.278Z" fill="#8B8B8B"/>
<path d="M162.661 124.52V126.712H164.859H167.009L166.866 124.663C166.722 122.661 166.722 122.661 164.716 122.518L162.661 122.375V124.52Z" fill="#8B8B8B"/>
<path d="M8.42996 129.19C8.5733 131.239 8.5733 131.239 10.4845 131.239C12.3956 131.239 12.3956 131.239 12.539 129.19L12.6823 127.188H10.4845H8.28662L8.42996 129.19Z" fill="#8B8B8B"/>
<path d="M167.057 129.19C167.2 131.239 167.2 131.239 169.255 131.382L171.261 131.525V129.381V127.188H169.064H166.914L167.057 129.19Z" fill="#8B8B8B"/>
<path d="M13.0646 131.812C13.0646 132.002 12.9691 132.955 12.8735 133.861C12.8257 134.766 12.7302 135.672 12.6824 135.863C12.6824 136.101 11.679 136.244 10.4845 136.244H8.33447V147.444V158.691L12.7779 158.548L17.1736 158.405V156.499V154.592L14.928 154.449L12.6346 154.306V151.971V149.636L14.928 149.493L17.1736 149.35V147.444V145.537L14.928 145.394L12.6346 145.251V142.916V140.581L14.928 140.438L17.1736 140.295V136.006V131.716L15.1669 131.573C14.0202 131.478 13.1124 131.573 13.0646 131.812Z" fill="#8B8B8B"/>
<path d="M31.2686 133.622V135.767H35.5687H39.8688V133.622V131.478H35.5687H31.2686V133.622Z" fill="#8B8B8B"/>
<path d="M53.7246 133.575V135.767H55.9225H58.0725L57.9292 133.718C57.7858 131.716 57.7858 131.716 55.7791 131.573L53.7246 131.43V133.575Z" fill="#8B8B8B"/>
<path d="M171.739 138.388V140.533H176.039H180.34V138.388V136.243H176.039H171.739V138.388Z" fill="#8B8B8B"/>
<path d="M207.956 140.628L207.812 145.06L203.273 145.299L198.734 145.537V147.443V149.35L200.884 149.588L203.035 149.826L203.273 151.971L203.512 154.116L207.669 154.259C211.683 154.402 211.874 154.354 212.113 153.305C212.256 152.686 212.304 148.683 212.256 144.346L212.113 136.482L210.106 136.339L208.099 136.196L207.956 140.628Z" fill="#8B8B8B"/>
<path d="M17.7471 140.819C17.5559 141.01 17.4126 142.01 17.4126 143.011V144.822H19.6104H21.7605L21.6172 142.773C21.4738 140.867 21.4261 140.771 19.8016 140.628C18.846 140.533 17.9382 140.628 17.7471 140.819Z" fill="#8B8B8B"/>
<path d="M121.762 141.2C121.619 141.581 121.571 142.582 121.667 143.488C121.81 144.917 121.954 145.06 123.483 145.108C126.349 145.156 126.349 145.203 126.349 147.443V149.54L130.793 149.683L135.188 149.826L135.427 151.971L135.666 154.115L139.823 154.258C143.932 154.401 144.028 154.354 144.314 153.21C144.792 151.304 144.362 150.303 143.072 150.16C139.871 149.826 139.727 149.683 139.727 147.443C139.727 145.203 139.871 145.108 143.024 144.727C144.266 144.584 144.696 143.488 144.266 141.581C144.028 140.533 143.836 140.485 139.823 140.628L135.666 140.771L135.523 143.011L135.38 145.299H133.038H130.697L130.554 143.011L130.411 140.771L126.206 140.628C122.909 140.533 122.001 140.628 121.762 141.2Z" fill="#8B8B8B"/>
<path d="M26.4907 147.443V149.588H28.6408H30.7909V147.443V145.299H28.6408H26.4907V147.443Z" fill="#8B8B8B"/>
<path d="M144.505 147.443V149.636L146.56 149.493C148.567 149.35 148.567 149.35 148.567 147.443C148.567 145.537 148.567 145.537 146.56 145.394L144.505 145.251V147.443Z" fill="#8B8B8B"/>
<path d="M157.883 154.354V158.643H160.033H162.183V154.354V150.065H160.033H157.883V154.354Z" fill="#8B8B8B"/>
<path d="M189.896 152.209V154.401L194.1 154.258L198.257 154.115L198.4 152.066L198.544 150.064H194.243H189.896V152.209Z" fill="#8B8B8B"/>
<path d="M26.8252 154.687C26.6341 154.83 26.4907 155.831 26.4907 156.832V158.643H28.6408H30.7909V156.498V154.354H28.9752C27.9719 154.354 26.9685 154.497 26.8252 154.687Z" fill="#8B8B8B"/>
<path d="M144.505 156.498V158.643H148.806H153.106V156.498V154.354H148.806H144.505V156.498Z" fill="#8B8B8B"/>
<path d="M166.866 156.594L166.722 158.881L164.716 159.024L162.661 159.167V161.312V163.409H164.811H166.961V165.553V167.698H169.111H171.261V165.553V163.409H173.65H176.087L175.944 167.793L175.8 172.226L173.794 172.369L171.787 172.512L171.644 176.896L171.5 181.281L169.255 181.424L166.961 181.567V185.856C166.961 188.906 167.105 190.098 167.582 190.145C167.869 190.145 168.92 190.193 169.828 190.24L171.5 190.336V194.863V199.391L169.255 199.534L167.009 199.677L166.866 201.917L166.722 204.157H164.572H162.422L162.279 201.917L162.136 199.629H155.446H148.805V201.774V203.918H153.296H157.835L157.979 206.158L158.122 208.446L164.668 208.589L171.214 208.732L171.357 206.444L171.5 204.157L173.794 204.014L176.039 203.871V201.726V199.629H180.578C185.452 199.629 185.309 199.534 185.117 202.393C185.022 203.918 185.07 203.918 187.22 203.918H189.418V201.774V199.629H191.568H193.718V195.435C193.718 192.814 193.909 191.051 194.291 190.669C194.625 190.336 195.677 190.098 196.728 190.098H198.543L198.4 188.048C198.257 186.047 198.257 186.047 196.107 185.808L193.957 185.57L193.861 181.757C193.813 179.66 193.765 177.706 193.765 177.373C193.718 177.039 192.858 176.753 191.711 176.658C189.656 176.515 189.656 176.515 189.513 174.466L189.37 172.416L187.363 172.559C185.356 172.702 185.356 172.702 185.213 174.752L185.07 176.801L182.824 176.658L180.578 176.515V172.226V167.936L182.872 167.793L185.117 167.65V165.553V163.456L182.872 163.313L180.578 163.171L180.435 161.169L180.292 159.167L175.896 159.024L171.5 158.881L171.357 156.594L171.214 154.354H169.111H167.009L166.866 156.594ZM189.8 188.048L189.943 194.863L184.162 194.911C181.008 194.959 178.094 194.959 177.712 194.959C177.329 194.959 176.804 194.959 176.517 194.911C175.992 194.863 175.848 181.9 176.374 181.328C176.565 181.185 179.623 181.09 183.158 181.138L189.656 181.281L189.8 188.048Z" fill="#8B8B8B"/>
<path d="M181.152 186.094C180.961 186.285 180.817 187.286 180.817 188.287V190.098H183.015H185.165L185.022 188.048C184.879 186.142 184.831 186.047 183.206 185.904C182.251 185.808 181.343 185.904 181.152 186.094Z" fill="#8B8B8B"/>
<path d="M185.357 155.45C185.213 156.022 185.118 158.023 185.213 159.835L185.357 163.171L187.411 163.314L189.418 163.457V158.929V154.354H187.507C185.93 154.354 185.548 154.544 185.357 155.45Z" fill="#8B8B8B"/>
<path d="M198.783 155.117C198.639 155.545 198.496 158.5 198.496 161.741V167.651L200.789 167.794L203.035 167.937V170.081V172.226L200.885 172.464L198.735 172.702V179.136V185.57L201.028 185.713L203.322 185.856L203.178 188.096L203.035 190.336L200.885 190.574L198.735 190.813L198.591 195.197L198.448 199.629H196.346H194.196V204.157V208.685H196.298H198.448L198.591 206.397L198.735 204.157L203.178 204.014L207.574 203.871V201.774V199.677L205.328 199.534L203.035 199.391V197.247V195.102L207.431 194.959C211.635 194.816 211.874 194.768 212.161 193.672C212.686 191.48 212.256 190.813 209.963 190.574L207.813 190.336L207.67 185.952L207.526 181.567L205.281 181.424L203.035 181.281V179.136V176.992L207.335 176.849C210.011 176.753 211.731 176.515 211.97 176.134C212.591 175.133 212.4 168.747 211.779 168.318C211.444 168.127 210.393 167.937 209.485 167.937H207.813L207.67 163.552L207.526 159.168L205.281 159.025L203.035 158.882L202.892 156.594L202.748 154.354H200.933C199.69 154.354 198.974 154.592 198.783 155.117Z" fill="#8B8B8B"/>
<path d="M22.0949 160.788C21.8083 163.075 22.2383 163.504 24.3883 163.314C26.2039 163.171 26.2517 163.123 26.3951 161.121L26.5384 159.12H24.4361C22.3338 159.12 22.286 159.167 22.0949 160.788Z" fill="#8B8B8B"/>
<path d="M140.11 161.121L139.966 163.17L137.721 163.313L135.427 163.456V165.601V167.698H140.014H144.553L144.41 169.938L144.266 172.226L142.26 172.369L140.205 172.512V174.656V176.801L144.41 176.658L148.567 176.515L148.614 172.226V167.936L153.249 167.793L157.836 167.65L157.979 172.083L158.122 176.515L160.177 176.658L162.184 176.801V170.129V163.409H153.344H144.505V161.264V159.12H142.403H140.253L140.11 161.121Z" fill="#8B8B8B"/>
<path d="M8.33447 165.506V167.698H10.5323H12.6824L12.539 165.649C12.3957 163.647 12.3957 163.647 10.389 163.504L8.33447 163.361V165.506Z" fill="#8B8B8B"/>
<path d="M17.4126 165.554V167.698H19.5627H21.7127V165.554V163.409H19.5627H17.4126V165.554Z" fill="#8B8B8B"/>
<path d="M26.3951 167.793L26.2517 172.226L19.5626 172.464L12.8736 172.702L12.8258 174.227C12.778 175.038 12.9213 175.943 13.0647 176.229C13.2558 176.515 15.3103 176.753 17.6515 176.849L21.9516 176.992L22.0949 178.993L22.2383 181.042H26.4906H30.743L30.8863 174.466L31.0297 167.936L33.3231 167.793L35.5687 167.65V165.506V163.409H31.0297H26.5384L26.3951 167.793Z" fill="#8B8B8B"/>
<path d="M67.5804 168.651C67.2938 169.176 67.1026 170.129 67.1982 170.701C67.2938 171.559 67.676 171.797 69.396 171.892L71.4028 172.035V170.129C71.4028 168.508 71.2594 168.175 70.495 168.175C69.9694 168.175 69.2527 168.032 68.8705 167.889C68.3927 167.746 67.9149 168.032 67.5804 168.651Z" fill="#8B8B8B"/>
<path d="M190.756 168.079C190.087 168.222 189.896 168.699 189.896 170.129V171.987H194.196H198.496V170.081C198.496 168.89 198.257 168.175 197.922 168.127C193.479 167.936 191.424 167.936 190.756 168.079Z" fill="#8B8B8B"/>
<path d="M8.33447 178.898V181.042H10.4845H12.6346V178.898V176.753H10.4845H8.33447V178.898Z" fill="#8B8B8B"/>
<path d="M35.9028 177.087C35.7117 177.23 35.5684 178.231 35.5684 179.231V181.042H37.7184H39.8685V178.898V176.753H38.0529C37.0495 176.753 36.0462 176.896 35.9028 177.087Z" fill="#8B8B8B"/>
<path d="M148.71 178.993L148.567 181.281L142.021 181.424L135.427 181.567V183.664V185.761L137.721 185.904L139.966 186.046L140.11 188.048C140.253 190.097 140.253 190.097 142.164 190.097C143.454 190.097 144.028 189.907 144.075 189.383C144.123 189.001 144.219 188.429 144.266 188.191C144.314 187.905 144.41 187.286 144.458 186.761C144.505 185.856 144.84 185.808 151.194 185.808H157.883V188.191V190.574H151.194H144.505V192.719V194.863H153.344H162.184V188.191V181.567L157.788 181.424L153.344 181.281L153.201 178.993L153.058 176.753H150.955H148.853L148.71 178.993Z" fill="#8B8B8B"/>
<path d="M162.661 178.85V181.042H164.859H167.009L166.866 178.993C166.722 176.992 166.722 176.992 164.716 176.849L162.661 176.706V178.85Z" fill="#8B8B8B"/>
<path d="M8.66893 186.142C8.47781 186.285 8.33447 193.386 8.33447 201.869V217.263H24.1016H39.8688V201.535V185.808H24.4361C15.9314 185.808 8.81226 185.951 8.66893 186.142ZM35.3297 201.774V213.212H24.1016H12.8735L12.7302 202.25C12.6824 196.245 12.7302 191.051 12.8735 190.717C13.0168 190.193 15.4536 190.097 24.1972 190.193L35.3297 190.336V201.774Z" fill="#8B8B8B"/>
<path d="M17.6515 195.436C17.5082 195.817 17.4604 198.867 17.5082 202.298L17.6515 208.446H24.1017H30.5519V201.774V195.102L24.1972 194.959C19.1804 194.816 17.8426 194.911 17.6515 195.436Z" fill="#8B8B8B"/>
<path d="M131.031 186.38C130.649 187.429 130.554 191.956 130.888 193.434C131.175 194.72 131.366 194.863 133.086 194.863C135.332 194.863 135.523 194.291 135.332 189.383L135.188 186.046L133.229 185.904C131.939 185.808 131.175 185.951 131.031 186.38Z" fill="#8B8B8B"/>
<path d="M44.8379 191.194C44.7424 191.527 44.6946 195.531 44.7424 200.106L44.8857 208.446L46.9402 208.589L48.9469 208.732V199.677V190.574H47.0358C45.8891 190.574 44.9813 190.812 44.8379 191.194Z" fill="#8B8B8B"/>
<path d="M140.492 195.197C140.348 195.34 140.205 196.436 140.205 197.58V199.677L142.26 199.534C143.932 199.391 144.314 199.2 144.41 198.247C144.744 196.007 144.171 195.006 142.451 194.959C141.543 194.911 140.683 195.054 140.492 195.197Z" fill="#8B8B8B"/>
<path d="M162.661 197.294V199.677L164.716 199.534C166.722 199.391 166.722 199.391 166.866 197.341C166.961 195.959 166.818 195.34 166.388 195.292C166.053 195.245 165.05 195.149 164.238 195.054L162.661 194.863V197.294Z" fill="#8B8B8B"/>
<path d="M135.762 199.963C135.571 200.106 135.427 201.107 135.427 202.107V203.918H137.577H139.727V201.774V199.629H137.912C136.908 199.629 135.905 199.772 135.762 199.963Z" fill="#8B8B8B"/>
<path d="M103.558 204.729C103.463 205.015 103.415 205.968 103.511 206.873C103.654 208.351 103.749 208.446 105.708 208.589L107.715 208.732V206.444V204.157H105.756C104.657 204.157 103.654 204.395 103.558 204.729Z" fill="#8B8B8B"/>
<path d="M117.414 204.729C117.319 205.014 117.271 205.968 117.367 206.873L117.51 208.446L121.714 208.589C126.11 208.732 125.967 208.827 125.967 206.301C125.967 204.157 126.015 204.157 121.762 204.157C119.087 204.157 117.558 204.347 117.414 204.729Z" fill="#8B8B8B"/>
<path d="M130.888 204.872C130.793 205.253 130.697 207.111 130.745 208.922C130.793 210.781 130.697 212.545 130.458 212.878C130.219 213.307 127.735 213.45 121.285 213.45H112.493V215.356V217.263L123.865 217.167L135.188 217.024L135.332 210.781L135.475 204.49L133.277 204.3C131.653 204.204 131.079 204.347 130.888 204.872Z" fill="#8B8B8B"/>
<path d="M144.505 210.734V217.311L146.56 217.168C148.423 217.025 148.567 216.929 148.662 215.595C148.662 214.785 148.758 213.879 148.758 213.546C148.806 213.164 149.57 212.974 151.003 212.974H153.153L153.01 210.924C152.867 208.923 152.867 208.923 150.717 208.684C148.662 208.446 148.567 208.398 148.519 206.778C148.471 205.873 148.423 204.872 148.375 204.633C148.375 204.347 147.468 204.157 146.417 204.157H144.505V210.734Z" fill="#8B8B8B"/>
<path d="M176.183 204.729C176.087 205.015 176.04 205.968 176.135 206.874L176.278 208.446H180.579H184.879L185.022 206.445L185.165 204.443L180.77 204.3C177.76 204.205 176.326 204.348 176.183 204.729Z" fill="#8B8B8B"/>
<path d="M189.896 210.829V212.974H191.807H193.718V210.829V208.684H191.807H189.896V210.829Z" fill="#8B8B8B"/>
<path d="M198.735 209.161C198.543 209.447 198.496 210.352 198.591 211.21C198.735 212.64 198.878 212.735 200.885 212.973C203.035 213.212 203.035 213.212 203.178 215.213L203.321 217.263H205.424H207.526L207.669 215.213C207.813 213.212 207.813 213.212 209.963 212.973C212.256 212.735 212.686 212.068 212.161 209.828C211.874 208.684 211.826 208.684 205.424 208.684C201.601 208.684 198.926 208.875 198.735 209.161Z" fill="#8B8B8B"/>
<path d="M153.392 214.594C152.723 217.311 152.532 217.263 167.009 217.263H180.34V215.357V213.45H167.009H153.679L153.392 214.594Z" fill="#8B8B8B"/>
<path d="M185.309 214.117C185.166 214.499 185.118 215.309 185.213 215.928C185.309 216.834 185.691 217.025 187.411 217.168L189.418 217.311V215.404V213.45H187.507C186.264 213.45 185.452 213.689 185.309 214.117Z" fill="#8B8B8B"/>
<path d="M194.196 215.404V217.311L196.25 217.168C198.209 217.025 198.257 216.977 198.4 215.214L198.544 213.45H196.394H194.196V215.404Z" fill="#8B8B8B"/>
<rect x="27.2271" y="230.595" width="164.546" height="28.381" rx="12" fill="#D9D9D9" fill-opacity="0.32"/>
<path d="M68.0534 238.401C68.8427 238.401 69.5574 238.588 70.1974 238.961C70.8374 239.324 71.344 239.911 71.7174 240.721C72.1014 241.532 72.2934 242.604 72.2934 243.937C72.2934 245.249 72.112 246.353 71.7494 247.249C71.3974 248.135 70.8854 248.807 70.2134 249.265C69.552 249.724 68.7574 249.953 67.8294 249.953C66.9974 249.953 66.288 249.767 65.7014 249.393C65.1147 249.02 64.6827 248.535 64.4054 247.937L65.6694 247.297C66.1494 248.257 66.8907 248.737 67.8934 248.737C68.5654 248.737 69.1147 248.551 69.5414 248.177C69.9787 247.793 70.304 247.255 70.5174 246.561C70.7307 245.857 70.8427 245.031 70.8534 244.081L70.7094 244.049C70.432 244.668 70.032 245.148 69.5094 245.489C68.9974 245.82 68.384 245.985 67.6694 245.985C66.912 245.985 66.2614 245.82 65.7174 245.489C65.184 245.148 64.7734 244.695 64.4854 244.129C64.208 243.553 64.0694 242.924 64.0694 242.241C64.0694 241.516 64.24 240.865 64.5814 240.289C64.9334 239.703 65.408 239.244 66.0054 238.913C66.6027 238.572 67.2854 238.401 68.0534 238.401ZM68.1174 239.569C67.5947 239.569 67.136 239.687 66.7414 239.921C66.3467 240.156 66.0427 240.476 65.8294 240.881C65.616 241.276 65.5094 241.724 65.5094 242.225C65.5094 243.004 65.728 243.644 66.1654 244.145C66.6134 244.636 67.2427 244.881 68.0534 244.881C68.8427 244.881 69.4774 244.636 69.9574 244.145C70.4374 243.644 70.6774 243.004 70.6774 242.225C70.6774 241.724 70.5707 241.276 70.3574 240.881C70.144 240.476 69.8454 240.156 69.4614 239.921C69.0774 239.687 68.6294 239.569 68.1174 239.569ZM78.3325 249.953C77.3832 249.953 76.5778 249.703 75.9165 249.201C75.2552 248.7 74.7485 248.017 74.3965 247.153C74.0551 246.279 73.8845 245.287 73.8845 244.177C73.8845 243.068 74.0551 242.081 74.3965 241.217C74.7485 240.343 75.2552 239.655 75.9165 239.153C76.5778 238.652 77.3832 238.401 78.3325 238.401C79.2818 238.401 80.0872 238.652 80.7485 239.153C81.4098 239.655 81.9111 240.343 82.2525 241.217C82.6045 242.081 82.7805 243.068 82.7805 244.177C82.7805 245.287 82.6045 246.279 82.2525 247.153C81.9111 248.017 81.4098 248.7 80.7485 249.201C80.0872 249.703 79.2818 249.953 78.3325 249.953ZM78.3325 248.689C78.9938 248.689 79.5432 248.492 79.9805 248.097C80.4285 247.692 80.7645 247.148 80.9885 246.465C81.2125 245.783 81.3245 245.02 81.3245 244.177C81.3245 243.324 81.2125 242.561 80.9885 241.889C80.7645 241.207 80.4285 240.668 79.9805 240.273C79.5432 239.868 78.9938 239.665 78.3325 239.665C77.6712 239.665 77.1165 239.868 76.6685 240.273C76.2205 240.668 75.8845 241.207 75.6605 241.889C75.4472 242.561 75.3405 243.324 75.3405 244.177C75.3405 245.02 75.4472 245.783 75.6605 246.465C75.8845 247.148 76.2205 247.692 76.6685 248.097C77.1165 248.492 77.6712 248.689 78.3325 248.689ZM88.7075 249.953C87.7582 249.953 86.9528 249.703 86.2915 249.201C85.6302 248.7 85.1235 248.017 84.7715 247.153C84.4301 246.279 84.2595 245.287 84.2595 244.177C84.2595 243.068 84.4301 242.081 84.7715 241.217C85.1235 240.343 85.6302 239.655 86.2915 239.153C86.9528 238.652 87.7582 238.401 88.7075 238.401C89.6568 238.401 90.4622 238.652 91.1235 239.153C91.7848 239.655 92.2861 240.343 92.6275 241.217C92.9795 242.081 93.1555 243.068 93.1555 244.177C93.1555 245.287 92.9795 246.279 92.6275 247.153C92.2861 248.017 91.7848 248.7 91.1235 249.201C90.4622 249.703 89.6568 249.953 88.7075 249.953ZM88.7075 248.689C89.3688 248.689 89.9182 248.492 90.3555 248.097C90.8035 247.692 91.1395 247.148 91.3635 246.465C91.5875 245.783 91.6995 245.02 91.6995 244.177C91.6995 243.324 91.5875 242.561 91.3635 241.889C91.1395 241.207 90.8035 240.668 90.3555 240.273C89.9182 239.868 89.3688 239.665 88.7075 239.665C88.0462 239.665 87.4915 239.868 87.0435 240.273C86.5955 240.668 86.2595 241.207 86.0355 241.889C85.8222 242.561 85.7155 243.324 85.7155 244.177C85.7155 245.02 85.8222 245.783 86.0355 246.465C86.2595 247.148 86.5955 247.692 87.0435 248.097C87.4915 248.492 88.0462 248.689 88.7075 248.689ZM101.756 249.953C100.732 249.953 99.9005 249.724 99.2605 249.265C98.6205 248.807 98.1618 248.167 97.8845 247.345L99.1805 246.849C99.3832 247.457 99.6925 247.927 100.108 248.257C100.524 248.577 101.074 248.737 101.756 248.737C102.556 248.737 103.175 248.481 103.612 247.969C104.06 247.457 104.284 246.737 104.284 245.809C104.284 244.967 104.066 244.337 103.628 243.921C103.202 243.495 102.658 243.281 101.996 243.281C101.431 243.281 100.956 243.404 100.572 243.649C100.199 243.895 99.9112 244.263 99.7085 244.753H98.2525V238.577H105.148V239.793H99.6605V242.257C99.6605 242.513 99.6498 242.732 99.6285 242.913C99.6072 243.084 99.5698 243.308 99.5165 243.585L99.6765 243.617C99.9432 243.116 100.3 242.737 100.748 242.481C101.207 242.225 101.74 242.097 102.348 242.097C102.978 242.097 103.543 242.241 104.044 242.529C104.556 242.807 104.962 243.217 105.26 243.761C105.57 244.305 105.724 244.972 105.724 245.761C105.724 246.615 105.564 247.356 105.244 247.985C104.935 248.615 104.482 249.1 103.884 249.441C103.298 249.783 102.588 249.953 101.756 249.953ZM110.894 249.953C109.763 249.953 108.851 249.681 108.158 249.137C107.464 248.593 106.995 247.884 106.75 247.009L108.078 246.593C108.291 247.265 108.616 247.793 109.054 248.177C109.502 248.551 110.115 248.737 110.894 248.737C111.694 248.737 112.312 248.535 112.75 248.129C113.187 247.724 113.406 247.196 113.406 246.545C113.406 245.884 113.187 245.404 112.75 245.105C112.323 244.807 111.704 244.657 110.894 244.657H109.262V243.457H110.622C111.422 243.457 112.03 243.297 112.446 242.977C112.872 242.647 113.086 242.156 113.086 241.505C113.086 240.919 112.894 240.455 112.51 240.113C112.126 239.772 111.598 239.607 110.926 239.617C110.243 239.617 109.699 239.767 109.294 240.065C108.888 240.364 108.574 240.78 108.35 241.313L107.102 240.705C107.422 240.023 107.896 239.468 108.526 239.041C109.166 238.615 109.966 238.401 110.926 238.401C112.035 238.401 112.91 238.668 113.55 239.201C114.19 239.724 114.51 240.433 114.51 241.329C114.51 241.927 114.328 242.455 113.966 242.913C113.603 243.361 113.048 243.628 112.302 243.713L112.542 243.457V244.225L112.302 243.841C112.878 243.905 113.352 244.065 113.726 244.321C114.11 244.577 114.392 244.903 114.574 245.297C114.766 245.681 114.862 246.108 114.862 246.577C114.862 247.228 114.707 247.809 114.398 248.321C114.088 248.823 113.635 249.223 113.038 249.521C112.451 249.809 111.736 249.953 110.894 249.953ZM120.069 249.953C119.045 249.953 118.213 249.724 117.573 249.265C116.933 248.807 116.474 248.167 116.197 247.345L117.493 246.849C117.696 247.457 118.005 247.927 118.421 248.257C118.837 248.577 119.386 248.737 120.069 248.737C120.869 248.737 121.488 248.481 121.925 247.969C122.373 247.457 122.597 246.737 122.597 245.809C122.597 244.967 122.378 244.337 121.941 243.921C121.514 243.495 120.97 243.281 120.309 243.281C119.744 243.281 119.269 243.404 118.885 243.649C118.512 243.895 118.224 244.263 118.021 244.753H116.565V238.577H123.461V239.793H117.973V242.257C117.973 242.513 117.962 242.732 117.941 242.913C117.92 243.084 117.882 243.308 117.829 243.585L117.989 243.617C118.256 243.116 118.613 242.737 119.061 242.481C119.52 242.225 120.053 242.097 120.661 242.097C121.29 242.097 121.856 242.241 122.357 242.529C122.869 242.807 123.274 243.217 123.573 243.761C123.882 244.305 124.037 244.972 124.037 245.761C124.037 246.615 123.877 247.356 123.557 247.985C123.248 248.615 122.794 249.1 122.197 249.441C121.61 249.783 120.901 249.953 120.069 249.953ZM129.72 249.777L134.504 239.761L134.44 239.617C134.142 239.671 133.896 239.713 133.704 239.745C133.523 239.767 133.352 239.783 133.192 239.793C133.032 239.793 132.84 239.793 132.616 239.793H128.312V238.577H135.848V240.081L131.24 249.777H129.72ZM136.253 247.057V245.521L140.573 238.577H143.149V249.777H141.741V239.873H141.213L137.485 245.889L137.565 246.033C137.885 245.969 138.141 245.927 138.333 245.905C138.525 245.873 138.701 245.857 138.861 245.857C139.021 245.847 139.208 245.841 139.421 245.841H144.781V247.057H136.253ZM150.364 249.953C149.414 249.953 148.609 249.703 147.948 249.201C147.286 248.7 146.78 248.017 146.428 247.153C146.086 246.279 145.916 245.287 145.916 244.177C145.916 243.068 146.086 242.081 146.428 241.217C146.78 240.343 147.286 239.655 147.948 239.153C148.609 238.652 149.414 238.401 150.364 238.401C151.313 238.401 152.118 238.652 152.78 239.153C153.441 239.655 153.942 240.343 154.284 241.217C154.636 242.081 154.812 243.068 154.812 244.177C154.812 245.287 154.636 246.279 154.284 247.153C153.942 248.017 153.441 248.7 152.78 249.201C152.118 249.703 151.313 249.953 150.364 249.953ZM150.364 248.689C151.025 248.689 151.574 248.492 152.012 248.097C152.46 247.692 152.796 247.148 153.02 246.465C153.244 245.783 153.356 245.02 153.356 244.177C153.356 243.324 153.244 242.561 153.02 241.889C152.796 241.207 152.46 240.668 152.012 240.273C151.574 239.868 151.025 239.665 150.364 239.665C149.702 239.665 149.148 239.868 148.7 240.273C148.252 240.668 147.916 241.207 147.692 241.889C147.478 242.561 147.372 243.324 147.372 244.177C147.372 245.02 147.478 245.783 147.692 246.465C147.916 247.148 148.252 247.692 148.7 248.097C149.148 248.492 149.702 248.689 150.364 248.689Z" fill="#313131"/>
<path d="M75.4666 278.071V269.671H78.2026C79.1226 269.671 79.8986 269.851 80.5306 270.211C81.1706 270.571 81.6586 271.067 81.9946 271.699C82.3306 272.331 82.4986 273.055 82.4986 273.871C82.4986 274.687 82.3306 275.411 81.9946 276.043C81.6586 276.675 81.1706 277.171 80.5306 277.531C79.8986 277.891 79.1226 278.071 78.2026 278.071H75.4666ZM76.5586 277.123H78.2026C78.9226 277.123 79.5186 276.983 79.9906 276.703C80.4626 276.415 80.8146 276.027 81.0466 275.539C81.2866 275.043 81.4066 274.487 81.4066 273.871C81.4066 273.255 81.2866 272.703 81.0466 272.215C80.8146 271.719 80.4626 271.331 79.9906 271.051C79.5186 270.763 78.9226 270.619 78.2026 270.619H76.5586V277.123ZM85.3553 272.023V278.071H84.2993V272.887H83.2793V272.023H85.3553ZM84.7793 271.063C84.5793 271.063 84.4073 270.991 84.2633 270.847C84.1193 270.703 84.0473 270.527 84.0473 270.319C84.0473 270.111 84.1193 269.939 84.2633 269.803C84.4073 269.659 84.5793 269.587 84.7793 269.587C84.9873 269.587 85.1593 269.659 85.2953 269.803C85.4393 269.939 85.5113 270.111 85.5113 270.319C85.5113 270.527 85.4393 270.703 85.2953 270.847C85.1593 270.991 84.9873 271.063 84.7793 271.063ZM88.1925 274.891V278.071H87.1365V272.023H88.1805V272.335C88.1805 272.519 88.1725 272.679 88.1565 272.815C88.1405 272.943 88.1125 273.111 88.0725 273.319L88.1925 273.355C88.3765 272.907 88.6285 272.551 88.9485 272.287C89.2685 272.023 89.7005 271.891 90.2445 271.891C90.9085 271.891 91.4165 272.095 91.7685 272.503C92.1285 272.903 92.3085 273.467 92.3085 274.195V278.071H91.2405V274.219C91.2405 273.747 91.1325 273.387 90.9165 273.139C90.7005 272.883 90.3645 272.755 89.9085 272.755C89.6125 272.755 89.3325 272.835 89.0685 272.995C88.8125 273.155 88.6005 273.395 88.4325 273.715C88.2725 274.027 88.1925 274.419 88.1925 274.891ZM96.4911 278.203C95.9151 278.203 95.3991 278.067 94.9431 277.795C94.4951 277.523 94.1431 277.151 93.8871 276.679C93.6311 276.199 93.5031 275.655 93.5031 275.047C93.5031 274.431 93.6311 273.887 93.8871 273.415C94.1431 272.943 94.4951 272.571 94.9431 272.299C95.3991 272.027 95.9151 271.891 96.4911 271.891C97.0671 271.891 97.5791 272.027 98.0271 272.299C98.4751 272.571 98.8271 272.943 99.0831 273.415C99.3391 273.887 99.4671 274.431 99.4671 275.047C99.4671 275.655 99.3391 276.199 99.0831 276.679C98.8271 277.151 98.4751 277.523 98.0271 277.795C97.5791 278.067 97.0671 278.203 96.4911 278.203ZM96.4911 277.315C96.8751 277.315 97.2111 277.219 97.4991 277.027C97.7871 276.835 98.0111 276.567 98.1711 276.223C98.3311 275.879 98.4111 275.487 98.4111 275.047C98.4111 274.599 98.3271 274.207 98.1591 273.871C97.9991 273.527 97.7751 273.259 97.4871 273.067C97.1991 272.875 96.8671 272.779 96.4911 272.779C96.1151 272.779 95.7791 272.875 95.4831 273.067C95.1951 273.259 94.9671 273.527 94.7991 273.871C94.6391 274.207 94.5591 274.599 94.5591 275.047C94.5591 275.495 94.6391 275.891 94.7991 276.235C94.9671 276.571 95.1951 276.835 95.4831 277.027C95.7791 277.219 96.1151 277.315 96.4911 277.315ZM103.24 278.071V269.671H108.796V270.607H104.332V273.355H107.92V274.291H104.332V277.135H108.796V278.071H103.24ZM110.667 278.119C110.459 278.119 110.279 278.047 110.127 277.903C109.983 277.751 109.911 277.571 109.911 277.363C109.911 277.147 109.983 276.967 110.127 276.823C110.279 276.679 110.459 276.607 110.667 276.607C110.875 276.607 111.051 276.679 111.195 276.823C111.347 276.967 111.423 277.147 111.423 277.363C111.423 277.571 111.347 277.751 111.195 277.903C111.051 278.047 110.875 278.119 110.667 278.119ZM115.029 278.071V269.671H117.885C118.861 269.671 119.609 269.879 120.129 270.295C120.649 270.703 120.909 271.263 120.909 271.975C120.909 272.647 120.709 273.155 120.309 273.499C119.917 273.835 119.413 274.023 118.797 274.063L119.013 273.763V274.387L118.557 274.087C118.821 274.111 119.029 274.167 119.181 274.255C119.341 274.335 119.477 274.459 119.589 274.627C119.709 274.795 119.837 275.019 119.973 275.299L120.777 276.919C120.841 277.039 120.901 277.119 120.957 277.159C121.021 277.191 121.105 277.207 121.209 277.207H121.449V278.071H120.909C120.589 278.071 120.353 278.015 120.201 277.903C120.049 277.783 119.917 277.611 119.805 277.387L119.073 275.911C118.945 275.647 118.825 275.431 118.713 275.263C118.609 275.095 118.477 274.971 118.317 274.891C118.157 274.803 117.929 274.759 117.633 274.759H116.121V278.071H115.029ZM116.121 270.607V273.811H117.825C118.473 273.811 118.965 273.667 119.301 273.379C119.637 273.091 119.805 272.691 119.805 272.179C119.805 271.131 119.145 270.607 117.825 270.607H116.121ZM124.956 278.203C124.38 278.203 123.864 278.067 123.408 277.795C122.96 277.523 122.608 277.151 122.352 276.679C122.096 276.199 121.968 275.655 121.968 275.047C121.968 274.431 122.096 273.887 122.352 273.415C122.608 272.943 122.96 272.571 123.408 272.299C123.864 272.027 124.38 271.891 124.956 271.891C125.532 271.891 126.044 272.027 126.492 272.299C126.94 272.571 127.292 272.943 127.548 273.415C127.804 273.887 127.932 274.431 127.932 275.047C127.932 275.655 127.804 276.199 127.548 276.679C127.292 277.151 126.94 277.523 126.492 277.795C126.044 278.067 125.532 278.203 124.956 278.203ZM124.956 277.315C125.34 277.315 125.676 277.219 125.964 277.027C126.252 276.835 126.476 276.567 126.636 276.223C126.796 275.879 126.876 275.487 126.876 275.047C126.876 274.599 126.792 274.207 126.624 273.871C126.464 273.527 126.24 273.259 125.952 273.067C125.664 272.875 125.332 272.779 124.956 272.779C124.58 272.779 124.244 272.875 123.948 273.067C123.66 273.259 123.432 273.527 123.264 273.871C123.104 274.207 123.024 274.599 123.024 275.047C123.024 275.495 123.104 275.891 123.264 276.235C123.432 276.571 123.66 276.835 123.948 277.027C124.244 277.219 124.58 277.315 124.956 277.315ZM131.74 278.203C131.18 278.203 130.676 278.067 130.228 277.795C129.788 277.523 129.44 277.151 129.184 276.679C128.936 276.199 128.812 275.655 128.812 275.047C128.812 274.439 128.936 273.899 129.184 273.427C129.44 272.947 129.788 272.571 130.228 272.299C130.668 272.027 131.172 271.891 131.74 271.891C132.412 271.891 132.98 272.063 133.444 272.407C133.908 272.751 134.228 273.203 134.404 273.763L133.42 274.063C133.292 273.647 133.08 273.331 132.784 273.115C132.496 272.891 132.148 272.779 131.74 272.779C131.372 272.779 131.048 272.875 130.768 273.067C130.488 273.259 130.268 273.527 130.108 273.871C129.948 274.207 129.868 274.599 129.868 275.047C129.868 275.495 129.948 275.891 130.108 276.235C130.268 276.571 130.488 276.835 130.768 277.027C131.056 277.219 131.384 277.315 131.752 277.315C132.208 277.315 132.576 277.199 132.856 276.967C133.144 276.735 133.352 276.403 133.48 275.971L134.416 276.091C134.24 276.755 133.928 277.275 133.48 277.651C133.032 278.019 132.452 278.203 131.74 278.203ZM137.235 278.179C136.643 278.179 136.171 278.027 135.819 277.723C135.467 277.411 135.291 276.995 135.291 276.475C135.291 276.051 135.379 275.719 135.555 275.479C135.739 275.231 135.975 275.043 136.263 274.915C136.559 274.779 136.871 274.671 137.199 274.591L139.503 274.039V274.855L137.511 275.335C137.111 275.431 136.819 275.559 136.635 275.719C136.459 275.879 136.371 276.107 136.371 276.403C136.371 276.683 136.467 276.907 136.659 277.075C136.859 277.243 137.123 277.327 137.451 277.327C137.971 277.327 138.391 277.147 138.711 276.787C139.039 276.427 139.203 275.943 139.203 275.335V273.979C139.203 273.611 139.087 273.315 138.855 273.091C138.623 272.867 138.307 272.755 137.907 272.755C137.515 272.755 137.199 272.851 136.959 273.043C136.727 273.235 136.579 273.499 136.515 273.835L135.543 273.703C135.639 273.159 135.899 272.723 136.323 272.395C136.747 272.059 137.291 271.891 137.955 271.891C138.419 271.891 138.823 271.987 139.167 272.179C139.511 272.363 139.779 272.619 139.971 272.947C140.163 273.275 140.259 273.655 140.259 274.087V276.979C140.259 277.131 140.319 277.207 140.439 277.207H140.775V278.071H140.103C139.839 278.071 139.643 278.023 139.515 277.927C139.387 277.823 139.323 277.655 139.323 277.423C139.323 277.311 139.335 277.183 139.359 277.039C139.383 276.895 139.415 276.739 139.455 276.571L139.575 276.811L139.179 276.679L139.347 276.631C139.147 277.143 138.879 277.531 138.543 277.795C138.207 278.051 137.771 278.179 137.235 278.179Z" fill="#8B8B8B"/>
</svg>
