<svg width="240" height="240" viewBox="0 0 240 240" fill="none" xmlns="http://www.w3.org/2000/svg">
<rect width="240" height="240" rx="36" fill="white"/>
<path d="M200.418 187.521C179.4 136.586 158.234 85.5769 137.215 34.4937C130.851 19.1688 109.092 19.1688 102.802 34.4937C81.6353 85.5029 60.617 136.586 39.5987 187.521C36.1203 196.035 38.5626 204.919 44.5573 210.398C50.4779 216.024 59.5069 217.875 67.7218 213.729C100.507 197.072 139.288 197.072 172.221 213.729C180.362 217.875 189.317 216.098 195.386 210.398C201.38 204.919 203.897 196.035 200.418 187.521ZM149.205 167.088C147.725 168.643 145.356 169.457 142.914 168.569C128.038 163.238 111.757 163.238 96.955 168.569C94.5868 169.457 92.2925 168.643 90.6643 167.162C89.1842 165.607 88.5181 163.09 89.4802 160.795C97.8431 140.658 106.132 120.521 114.569 100.384C116.567 95.4974 123.376 95.4974 125.374 100.384C133.663 120.521 142.026 140.658 150.315 160.795C151.351 163.164 150.685 165.607 149.205 167.088Z" fill="black"/>
</svg>
