<svg width="240" height="240" viewBox="0 0 240 240" fill="none" xmlns="http://www.w3.org/2000/svg">
<rect width="240" height="240" rx="36" fill="white"/>
<path d="M206.361 174.034L149.971 37.9571C144.834 25.6493 133.349 18 120.016 18C106.568 18 95.1401 25.6493 90.0033 37.9571L33.6138 174.034C28.073 187.434 31.536 203.021 42.1559 212.798C48.6202 218.779 56.9892 222 65.7044 222C71.1875 222 76.7284 220.677 81.6343 218.089C93.4663 211.935 106.741 208.714 120.074 208.714C133.406 208.714 146.681 211.935 158.513 218.089C163.419 220.677 168.96 222 174.385 222C183.101 222 191.47 218.779 197.818 212.798C208.438 203.021 211.959 187.434 206.361 174.034Z" fill="#4F46E5"/>
</svg>
