<svg width="25" height="24" viewBox="0 0 25 24" fill="none" xmlns="http://www.w3.org/2000/svg">
<path fill-rule="evenodd" clip-rule="evenodd" d="M13.2873 6.66955C12.5962 6.72138 11.8014 6.77322 11.0065 6.87689C9.7884 7.04104 8.57025 7.24838 7.56809 7.72354C5.60697 8.51836 4.28516 10.2117 4.28516 12.6998C4.28516 15.8272 6.29812 17.4168 8.83807 17.4168C9.68472 17.4168 10.3759 17.3132 11.0065 17.149C12.0173 16.8294 12.864 16.2505 13.8662 15.1879C14.445 15.9827 14.6091 16.3542 15.6113 17.2009C15.8791 17.3045 16.1383 17.3045 16.3543 17.149C16.9936 16.622 18.1081 15.6631 18.6869 15.1361C18.9547 14.9201 18.9029 14.6091 18.7387 14.3413C18.1599 13.5983 17.5724 12.959 17.5724 11.5335V6.78186C17.5724 4.7689 17.7366 2.91145 16.2506 1.5378C15.0325 0.423326 13.1232 0 11.6372 0H10.9979C8.30243 0.155508 5.44282 1.32181 4.80351 4.66523C4.69984 5.08855 5.0195 5.2527 5.22684 5.30454L8.19012 5.67603C8.50978 5.62419 8.66529 5.35637 8.71712 5.09719C8.98494 3.93089 9.93526 3.35205 10.9893 3.23974H11.2052C11.8446 3.23974 12.5271 3.50756 12.8985 4.03456C13.3219 4.67387 13.27 5.52052 13.27 6.2635L13.2873 6.66955ZM12.6998 12.9762C12.3284 13.7192 11.689 14.1944 11.0065 14.3585C10.9029 14.3585 10.7387 14.4104 10.5832 14.4104C9.41691 14.4104 8.7344 13.5119 8.7344 12.1814C8.7344 10.4881 9.73656 9.69331 11.0065 9.32181C11.6977 9.16631 12.4925 9.10583 13.2873 9.10583V9.74514C13.2873 10.9633 13.3392 11.9136 12.6998 12.9762Z" fill="#343B45"/>
<path fill-rule="evenodd" clip-rule="evenodd" d="M20.527 19.4299C20.406 19.4299 20.2851 19.4558 20.1728 19.5076C20.0432 19.5595 19.9136 19.6199 19.7927 19.6718L19.6112 19.7495L19.378 19.8446C16.8035 20.8899 14.0994 21.5033 11.594 21.5551C11.4989 21.5551 11.4125 21.5551 11.3175 21.5551C7.37797 21.5551 4.16415 19.7322 0.924406 17.9266C0.812095 17.8662 0.691144 17.8402 0.578833 17.8402C0.431965 17.8402 0.285097 17.8921 0.172786 17.9957C0.0604752 18.0994 0 18.2463 0 18.4018C0 18.6005 0.103672 18.7819 0.250541 18.8942C3.29158 21.5379 6.62635 23.9914 11.1102 23.9914C11.1965 23.9914 11.2829 23.9914 11.378 23.9914C14.2289 23.9309 17.4514 22.9633 19.9568 21.391L19.9741 21.3823C20.3024 21.1836 20.6307 20.959 20.9417 20.7171C21.1318 20.5789 21.27 20.3543 21.27 20.121C21.2527 19.7063 20.9071 19.4299 20.527 19.4299ZM24 17.9698C23.9914 17.7193 23.9395 17.5292 23.8359 17.3737L23.8272 17.3564L23.8186 17.3392C23.7149 17.2268 23.6112 17.1836 23.4989 17.1318C23.1706 17.0022 22.6955 16.9331 22.1166 16.9331C21.7019 16.9331 21.2441 16.9763 20.7862 17.0713V17.0368L20.3283 17.1923H20.3197L20.0605 17.2787V17.2873C19.7581 17.4169 19.473 17.5724 19.2138 17.7625C19.0497 17.8834 18.9201 18.0389 18.9114 18.2895C18.9114 18.4191 18.9719 18.5746 19.0842 18.661C19.1965 18.7474 19.3261 18.7819 19.4384 18.7819C19.4644 18.7819 19.4903 18.7819 19.5162 18.7733H19.5421H19.5594C19.784 18.7214 20.1123 18.6955 20.5011 18.6351C20.8294 18.6005 21.1836 18.5746 21.486 18.5746C21.7019 18.5746 21.892 18.5919 22.0302 18.6178C22.0994 18.635 22.1425 18.6523 22.1685 18.661C22.1771 18.661 22.1857 18.6696 22.1857 18.6696C22.1944 18.6869 22.203 18.7387 22.1944 18.7992C22.1944 19.0497 22.0907 19.5249 21.9438 19.9828C21.797 20.4407 21.6242 20.9072 21.5119 21.2096C21.486 21.2787 21.4687 21.3564 21.4687 21.4428C21.4687 21.5638 21.5205 21.7193 21.6242 21.8143C21.7279 21.9093 21.8661 21.9525 21.9784 21.9525H21.987C22.1598 21.9525 22.2981 21.8834 22.4276 21.7884C23.6026 20.7344 24.0086 19.0497 24.0259 18.1081L24 17.9698Z" fill="#F4981A"/>
</svg>
