<svg width="60" height="48" viewBox="0 0 60 48" fill="none" xmlns="http://www.w3.org/2000/svg">
<path d="M13 0H49.7538C54.9584 0 58.7772 4.89111 57.5149 9.94028L48.7575 44.9701C48.3123 46.7508 46.7124 48 44.8769 48H10.4549C5.18574 48 1.35563 42.9946 2.73307 37.9087L13 0Z" fill="#E20C2E"/>
<path d="M17 25.5C17 15.9641 26 8.99987 34.4998 9C37.9998 9.00005 40.9998 9.80675 42.4998 10.5C42.8706 10.6714 43.4998 11 43.4998 11L40.9998 18C40.9998 18 40.3963 17.7259 40 17.5742C38.5 17 36.2681 16.2508 34.4998 16.5C29.8433 17.1563 26.5 20.5 26.5 25C26.5 27.8161 28.0089 29.6867 30.5 31C31.8873 31.7314 35.2394 31.9146 37.9998 30.9086C38.3962 30.7642 38.9998 30.5 38.9998 30.5L37.9998 38C37.9998 38 37.3923 38.1663 37 38.2605C34.5157 38.8569 32.5979 39 30.4998 39C24 39 17 34 17 25.5Z" fill="white" stroke="white"/>
</svg>
