<svg width="150" height="38" viewBox="0 0 150 38" fill="none" xmlns="http://www.w3.org/2000/svg">
<rect width="150" height="38" rx="12" fill="white"/>
<g clip-path="url(#clip0_1608_18)">
<path d="M81.6642 17.7567C81.2125 16.7176 80.5944 15.7941 79.8285 15.0118C79.061 14.2295 78.1627 13.6003 77.1557 13.1411C76.13 12.6717 75.0365 12.4336 73.9004 12.4336H73.8665C72.6676 12.4812 71.5366 12.7397 70.5076 13.2006C69.4768 13.6615 68.57 14.2873 67.811 15.0594C67.0502 15.835 66.4457 16.7533 66.0161 17.7856C65.5831 18.8248 65.3623 19.954 65.3623 21.1411C65.3623 22.3282 65.5882 23.5305 66.0331 24.5799C66.4746 25.6275 67.0927 26.5458 67.8687 27.3128C68.638 28.0748 69.5431 28.6785 70.5568 29.1071C71.5757 29.5373 72.6812 29.755 73.8427 29.755C75.0042 29.755 76.1572 29.5237 77.188 29.0697C78.2136 28.619 79.1187 27.9897 79.8795 27.2023C80.6351 26.42 81.2414 25.5016 81.6812 24.4744C82.1278 23.4319 82.3536 22.3111 82.3536 21.1411C82.3536 19.971 82.121 18.8111 81.6625 17.755M78.4531 21.1428C78.4531 21.7839 78.3342 22.3928 78.0982 22.9506C77.857 23.5186 77.5242 24.022 77.1082 24.4472C76.6921 24.8707 76.1963 25.2091 75.6325 25.454C75.0755 25.6955 74.4744 25.8179 73.8427 25.8179C73.211 25.8179 72.6183 25.6955 72.0732 25.4557C71.518 25.2125 71.0255 24.8724 70.6078 24.4472C70.1917 24.022 69.8589 23.5186 69.6178 22.9506C69.3817 22.3945 69.2629 21.7856 69.2629 21.1428C69.2629 20.4999 69.3834 19.8826 69.6212 19.3128C69.8606 18.738 70.1917 18.2312 70.6078 17.8077C71.0255 17.3826 71.518 17.0424 72.0732 16.7992C72.62 16.5594 73.2144 16.437 73.8427 16.437C74.471 16.437 75.0738 16.5594 75.6325 16.8009C76.1946 17.0441 76.6921 17.3826 77.1082 17.806C77.5242 18.2312 77.857 18.738 78.0965 19.3128C78.3342 19.8843 78.4548 20.4999 78.4548 21.1428" fill="black"/>
<path d="M123.311 17.7567C122.859 16.7176 122.241 15.7941 121.475 15.0118C120.707 14.2295 119.809 13.6003 118.802 13.1411C117.777 12.6717 116.683 12.4336 115.547 12.4336H115.513C114.314 12.4812 113.183 12.7397 112.154 13.2006C111.123 13.6615 110.217 14.2873 109.457 15.0594C108.697 15.835 108.092 16.7533 107.663 17.7856C107.23 18.8248 107.009 19.954 107.009 21.1411C107.009 22.3282 107.235 23.5305 107.68 24.5799C108.121 25.6275 108.739 26.5458 109.515 27.3128C110.284 28.0748 111.19 28.6785 112.203 29.1071C113.222 29.5373 114.328 29.755 115.489 29.755C116.651 29.755 117.804 29.5237 118.834 29.0697C119.86 28.619 120.765 27.9897 121.526 27.2023C122.282 26.42 122.888 25.5016 123.328 24.4744C123.774 23.4319 124 22.3111 124 21.1411C124 19.971 123.767 18.8111 123.309 17.755M120.1 21.1428C120.1 21.7839 119.981 22.3928 119.745 22.9506C119.504 23.5186 119.171 24.022 118.755 24.4472C118.339 24.8707 117.843 25.2091 117.279 25.454C116.722 25.6955 116.121 25.8179 115.489 25.8179C114.857 25.8179 114.265 25.6955 113.72 25.4557C113.164 25.2125 112.672 24.8724 112.254 24.4472C111.838 24.022 111.505 23.5186 111.264 22.9506C111.028 22.3945 110.909 21.7856 110.909 21.1428C110.909 20.4999 111.03 19.8826 111.268 19.3128C111.507 18.738 111.838 18.2312 112.254 17.8077C112.672 17.3826 113.164 17.0424 113.72 16.7992C114.267 16.5594 114.861 16.437 115.489 16.437C116.117 16.437 116.72 16.5594 117.279 16.8009C117.841 17.0441 118.339 17.3826 118.755 17.806C119.171 18.2312 119.504 18.738 119.743 19.3128C119.981 19.8843 120.101 20.4999 120.101 21.1428" fill="black"/>
<path d="M85.1674 7C84.0857 7 83.2061 7.88095 83.2061 8.96429V27.7908C83.2061 28.8741 84.0857 29.7551 85.1674 29.7551C86.2491 29.7551 87.1287 28.8741 87.1287 27.7908V8.96429C87.1287 7.88095 86.2491 7 85.1674 7Z" fill="black"/>
<path d="M136.082 21.1071L141.341 15.8401C141.711 15.4693 141.915 14.9761 141.915 14.4506C141.915 13.9251 141.711 13.4319 141.341 13.0612C140.971 12.6904 140.479 12.4863 139.954 12.4863C139.429 12.4863 138.937 12.6904 138.567 13.0612L133.307 18.3282L128.048 13.0612C127.284 12.2959 126.04 12.2959 125.274 13.0612C124.903 13.4319 124.7 13.9251 124.7 14.4506C124.7 14.9761 124.903 15.4693 125.274 15.8401L130.533 21.1071L125.274 26.3741C124.51 27.1394 124.51 28.386 125.274 29.153C125.656 29.5356 126.158 29.7278 126.661 29.7278C127.164 29.7278 127.666 29.5356 128.048 29.153L133.307 23.886L138.567 29.153C138.937 29.5237 139.429 29.7278 139.954 29.7278C140.479 29.7278 140.971 29.5237 141.341 29.153C142.105 28.3877 142.105 27.1411 141.341 26.3741L136.082 21.1071Z" fill="black"/>
<path d="M105.469 17.7568C105.017 16.716 104.399 15.7942 103.633 15.0119C102.865 14.2296 101.967 13.6003 100.96 13.1412C99.9344 12.6718 98.8408 12.4337 97.7048 12.4337H97.6708C96.472 12.4813 95.3427 12.7398 94.312 13.2007C93.3882 13.6139 92.5646 14.1582 91.8582 14.8231V8.96429C91.8582 7.88095 90.9786 7 89.8969 7C88.8152 7 87.9355 7.88095 87.9355 8.96429V27.7908C87.9355 28.8741 88.8152 29.7551 89.8969 29.7551C90.9786 29.7551 91.8582 28.8741 91.8582 27.7908V27.4915C92.5867 28.1701 93.4272 28.7126 94.3612 29.1071C95.3801 29.5374 96.4855 29.7551 97.6471 29.7551C98.8086 29.7551 99.9616 29.5238 100.992 29.0697C102.018 28.619 102.923 27.9898 103.684 27.2024C104.44 26.4201 105.046 25.5017 105.486 24.4745C105.932 23.432 106.158 22.3112 106.158 21.1412C106.158 19.9711 105.925 18.8112 105.467 17.7551M102.257 21.1429C102.257 21.784 102.139 22.3929 101.903 22.9507C101.661 23.5187 101.329 24.0221 100.913 24.4473C100.496 24.8707 100.001 25.2092 99.4369 25.4541C98.8799 25.6956 98.2788 25.818 97.6471 25.818C97.0154 25.818 96.4227 25.6956 95.8776 25.4558C95.3223 25.2126 94.8299 24.8724 94.4122 24.4473C93.9961 24.0221 93.6633 23.5187 93.4222 22.9507C93.1861 22.3946 93.0672 21.7857 93.0672 21.1429C93.0672 20.5 93.1878 19.8827 93.4255 19.3129C93.665 18.7381 93.9961 18.2313 94.4122 17.8078C94.8299 17.3827 95.3223 17.0425 95.8776 16.7993C96.4244 16.5595 97.0188 16.4371 97.6471 16.4371C98.2754 16.4371 98.8782 16.5595 99.4369 16.801C99.9989 17.0442 100.496 17.3827 100.913 17.8061C101.329 18.2313 101.661 18.7381 101.901 19.3129C102.139 19.8844 102.259 20.5 102.259 21.1429" fill="black"/>
<path d="M46.2383 24.4814C45.8596 24.143 45.4011 23.9644 44.9104 23.9644C44.3772 23.9644 43.9017 24.1583 43.54 24.5222C43.0985 24.9474 42.5874 25.2842 42.0202 25.524C41.4649 25.7586 40.8519 25.8777 40.2015 25.8777C39.5511 25.8777 38.9364 25.7535 38.3727 25.5103C37.8004 25.2637 37.291 24.9185 36.8596 24.4882C36.43 24.058 36.087 23.5478 35.8391 22.9729C35.5962 22.4083 35.4723 21.7927 35.4723 21.143C35.4723 20.4933 35.5962 19.8675 35.8408 19.291C36.087 18.7076 36.43 18.1957 36.8579 17.7654C37.2893 17.3335 37.797 16.9899 38.3693 16.7433C38.9347 16.5001 39.5494 16.376 40.1981 16.376C40.8468 16.376 41.4615 16.495 42.0168 16.7297C42.5908 16.9712 43.1053 17.291 43.5417 17.6719C43.9119 18.0325 44.384 18.2246 44.907 18.2246C45.3774 18.2246 45.8189 18.0512 46.1857 17.7246C46.5864 17.3692 46.7987 16.9083 46.7987 16.393C46.7987 15.9814 46.6102 15.5631 46.1857 15.0359C45.8613 14.6345 45.4096 14.2348 44.8425 13.8522C44.2923 13.4814 43.6368 13.1515 42.8913 12.8726C42.1068 12.5784 41.2204 12.4287 40.2542 12.4287H40.2236C39.0027 12.4763 37.8513 12.7348 36.8019 13.1957C35.7508 13.6566 34.827 14.2825 34.0561 15.0546C33.2817 15.8318 32.6653 16.7484 32.2272 17.7825C31.7857 18.8216 31.5615 19.9525 31.5615 21.1413C31.5615 22.3301 31.7908 23.5325 32.2459 24.5852C32.6959 25.6328 33.3259 26.5529 34.1155 27.3199C34.9 28.0818 35.8204 28.6855 36.8528 29.1124C37.8887 29.5427 39.0145 29.7603 40.1981 29.7603C41.2085 29.7603 42.1289 29.626 42.9355 29.3607C43.7234 29.1022 44.4044 28.7859 44.9596 28.4236C45.5506 28.0376 45.9904 27.643 46.3062 27.2178C46.6917 26.6974 46.8632 26.2893 46.8632 25.8913C46.8632 25.3386 46.6476 24.8505 46.2366 24.4831" fill="black"/>
<path d="M63.8781 17.7567C63.4264 16.7176 62.8082 15.7941 62.0424 15.0118C61.2749 14.2295 60.3765 13.6003 59.3696 13.1411C58.3439 12.6717 57.2503 12.4336 56.1143 12.4336H56.0803C54.8815 12.4812 53.7505 12.7397 52.7215 13.2006C51.6907 13.6615 50.7839 14.2873 50.0249 15.0594C49.2641 15.835 48.6596 16.7533 48.2299 17.7856C47.7969 18.8248 47.5762 19.954 47.5762 21.1411C47.5762 22.3282 47.802 23.5305 48.2469 24.5799C48.6884 25.6275 49.3066 26.5458 50.0826 27.3128C50.8518 28.0748 51.7569 28.6785 52.7707 29.1071C53.7896 29.5373 54.895 29.755 56.0566 29.755C57.2181 29.755 58.3711 29.5237 59.4018 29.0697C60.4275 28.619 61.3326 27.9897 62.0933 27.2023C62.849 26.42 63.4552 25.5016 63.895 24.4744C64.3416 23.4319 64.5675 22.3111 64.5675 21.1411C64.5675 19.971 64.3349 18.8111 63.8764 17.755M60.6669 21.1428C60.6669 21.7839 60.5481 22.3928 60.312 22.9506C60.0709 23.5186 59.7381 24.022 59.322 24.4472C58.906 24.8707 58.4101 25.2091 57.8464 25.454C57.2894 25.6955 56.6882 25.8179 56.0566 25.8179C55.4249 25.8179 54.8322 25.6955 54.2871 25.4557C53.7318 25.2125 53.2394 24.8724 52.8216 24.4472C52.4056 24.022 52.0728 23.5186 51.8316 22.9506C51.5956 22.3945 51.4767 21.7856 51.4767 21.1428C51.4767 20.4999 51.5973 19.8826 51.835 19.3128C52.0745 18.738 52.4056 18.2312 52.8216 17.8077C53.2394 17.3826 53.7318 17.0424 54.2871 16.7992C54.8339 16.5594 55.4282 16.437 56.0566 16.437C56.6849 16.437 57.2877 16.5594 57.8464 16.8009C58.4084 17.0441 58.906 17.3826 59.3203 17.806C59.7364 18.2312 60.0692 18.738 60.3086 19.3128C60.5464 19.8843 60.6669 20.4999 60.6669 21.1428Z" fill="black"/>
<path d="M26.2652 14.9455L18.2977 10.5645C17.6422 10.2057 16.8271 10.2057 16.1699 10.5645L8.20067 14.9455C7.87633 15.1241 7.60463 15.3826 7.41614 15.6938C7.22935 16.0084 7.13086 16.3605 7.13086 16.7159V25.4778C7.13256 26.2057 7.5435 26.8826 8.20237 27.2448L16.1716 31.6241C16.4994 31.8044 16.8678 31.8945 17.2346 31.8945C17.6014 31.8945 17.9699 31.8044 18.3011 31.6241L26.2652 27.2448C26.5895 27.068 26.8612 26.8095 27.0497 26.4982C27.2382 26.1904 27.3384 25.8367 27.3384 25.4744V16.7142C27.3384 15.9846 26.9275 15.306 26.2669 14.9438L26.2652 14.9455ZM23.555 25.1139L22.5226 24.8843C22.0573 24.7771 21.5988 24.8979 21.2558 25.0969L17.8494 27.0697C17.508 27.2686 16.9443 27.2686 16.6029 27.0697L12.3967 24.6326C12.0537 24.4353 11.7752 23.9472 11.7752 23.5492V18.6785C11.7752 18.2822 12.0554 17.7958 12.3967 17.5969L16.6046 15.1615C16.9477 14.9625 17.508 14.9625 17.8494 15.1615L22.0522 17.5969C22.3935 17.7958 22.6754 18.2822 22.6737 18.6785V22.5203C22.6737 22.9166 22.7688 23.5237 23.0965 23.8673L23.825 24.6377C24.129 24.954 23.9744 25.2125 23.5516 25.1105L23.555 25.1139Z" fill="#E0132E"/>
</g>
<defs>
<clipPath id="clip0_1608_18">
<rect width="135" height="25" fill="white" transform="translate(7 7)"/>
</clipPath>
</defs>
</svg>
