<svg width="24" height="36" viewBox="0 0 24 36" fill="none" xmlns="http://www.w3.org/2000/svg">
<g clip-path="url(#clip0_1427_147)">
<path d="M23.8402 35.8392H0.160156V0.160645H23.8402V35.8392Z" fill="#C2D100"/>
<path d="M6.43353 15.2006H10.4923L10.7369 14.0647L11.9805 7.98579C12.3631 6.26493 12.7144 4.76576 14.0207 3.50839C14.9127 2.63973 16.0754 2.1455 17.3156 2.14138C17.3156 2.14138 17.8021 2.14549 18.1079 2.18858L18.017 2.59641C18.017 2.59641 17.35 2.50226 16.9423 2.59641C16.4091 2.72469 16.1007 2.94663 15.7313 3.31719C15.051 3.999 14.8067 5.0366 14.3737 6.89422L12.8547 14.1202L12.6258 15.2006H17.1407L16.97 15.8214H12.4923L9.89518 28.0076C9.51543 29.7266 9.16121 31.2264 7.85785 32.4848C6.95883 33.3559 5.79016 33.8506 4.54054 33.8506L4.11572 33.8407L4.18873 33.443C4.31885 33.4466 4.46415 33.443 4.58078 33.4258C5.26655 33.3271 5.74125 33.0901 6.14462 32.5753C6.7875 31.7485 7.06798 30.9534 7.50412 29.098L10.3595 15.8214H6.26269L6.43353 15.2006ZM15.6575 19.4638C15.6575 18.7839 16.2048 18.2338 16.8831 18.2338C17.5585 18.2338 18.1079 18.7839 18.1079 19.4638C18.1079 20.1434 17.5585 20.6955 16.8831 20.6955C16.2048 20.6955 15.6575 20.1434 15.6575 19.4638Z" fill="white"/>
</g>
<defs>
<clipPath id="clip0_1427_147">
<rect width="24" height="36" fill="white"/>
</clipPath>
</defs>
</svg>
