<svg width="231" height="199" viewBox="0 0 231 199" fill="none" xmlns="http://www.w3.org/2000/svg">
<path d="M117.957 177.342L117.948 177.354L117.939 177.365C110.957 186.493 98.8029 190.301 87.8707 186.908L87.8158 186.891L87.7607 186.875C81.2435 184.934 75.7537 180.543 72.2954 174.553C70.1654 170.864 68.8944 166.559 68.7375 162.245L68.7364 162.215L68.7352 162.186C68.059 146.178 63.4596 130.464 55.4682 116.622C47.4768 102.781 36.1674 90.9405 22.6423 82.3509L22.6176 82.3353L22.5929 82.3197C18.9424 80.0312 15.8464 76.7808 13.681 73.0301C10.2308 67.0543 9.14545 60.0733 10.7013 53.2808L10.7041 53.2686L10.7069 53.2564C13.2273 42.1251 22.6141 33.5135 34.0393 31.9832C34.0401 31.9831 34.0409 31.983 34.0416 31.9829L192.088 10.9547C192.091 10.9543 192.094 10.9538 192.097 10.9534C202.423 9.60965 211.822 14.2208 217.044 23.2648C222.203 32.2003 221.528 42.6984 215.203 50.9689C215.2 50.9722 215.198 50.9754 215.195 50.9786L117.957 177.342Z" stroke="white" stroke-width="20"/>
</svg>
