<svg width="220" height="259" viewBox="0 0 220 259" fill="none" xmlns="http://www.w3.org/2000/svg">
<path d="M217.878 220.782C189.683 152.429 161.289 83.9763 133.094 15.4242C124.556 -5.1414 95.3678 -5.1414 86.9291 15.4242C58.5352 83.8769 30.3399 152.429 2.1446 220.782C-2.52152 232.208 0.754703 244.13 8.79632 251.482C16.7387 259.032 28.8507 261.516 39.8707 255.952C83.8514 233.599 135.874 233.599 180.053 255.952C190.974 261.516 202.986 259.132 211.127 251.482C219.169 244.13 222.544 232.208 217.878 220.782ZM149.177 193.361C147.192 195.448 144.015 196.541 140.738 195.348C120.783 188.195 98.9418 188.195 79.086 195.348C75.9091 196.541 72.8314 195.448 70.6473 193.461C68.6617 191.374 67.7682 187.997 69.0588 184.917C80.2774 157.893 91.3966 130.87 102.714 103.846C105.395 97.2893 114.529 97.2893 117.209 103.846C128.329 130.87 139.547 157.893 150.666 184.917C152.056 188.096 151.163 191.374 149.177 193.361Z" fill="#10B981"/>
</svg>
