<svg width="35" height="24" viewBox="0 0 35 24" fill="none" xmlns="http://www.w3.org/2000/svg">
<g clip-path="url(#clip0_1428_171)">
<path d="M34.9825 12C34.9825 18.6363 28.1865 23.9956 17.4936 23.9956C6.83609 23.9956 0.00244141 18.6363 0.00244141 12C0.00244141 11.9626 0.00244141 11.4892 0.00244141 11.3438C0.00244141 5.10825 7.82975 0.00439453 17.4936 0.00439453C27.1574 0.00439453 34.9825 5.10825 34.9825 11.3438C34.9825 11.6719 34.9825 11.782 34.9825 12Z" fill="#2D3277"/>
<path d="M17.5669 21.9895C26.8411 21.9895 34.3593 17.2232 34.3593 11.3436C34.3593 5.46407 26.8411 0.697754 17.5669 0.697754C8.29265 0.697754 0.774414 5.46407 0.774414 11.3436C0.774414 17.2232 8.29265 21.9895 17.5669 21.9895Z" fill="#FFE600"/>
<path d="M13.4146 6.42034C14.5901 5.25337 15.6548 4.19649 18.1922 4.12383C19.9178 4.0864 21.6456 4.89007 21.6456 4.89007C24.8417 6.42034 28.1133 5.83685 30.7571 4.74474C32.669 6.27502 33.9178 8.1708 34.2483 10.2119C30.3534 11.0882 27.4878 12.2904 26.8623 12.5833C26.055 11.8897 21.4238 7.88016 20.286 7.04126C19.6605 6.60309 19.2945 6.38511 18.9618 6.27502C18.669 6.20236 18.2277 6.09227 17.529 6.31245C16.868 6.493 16.2071 7.04126 15.5461 7.55208C14.9583 8.02548 14.2951 8.5363 13.8183 8.64419C12.9732 8.82695 12.1659 8.64419 11.9086 8.31612C11.7977 8.1708 11.9818 7.98805 11.9818 7.98805L13.4146 6.42034Z" fill="white"/>
<path d="M27.0463 13.8229C27.0463 14.151 26.8622 14.4064 26.5694 14.5891C25.7598 15.0978 25.1366 14.6244 25.0989 14.6244C25.0989 14.6244 23.2624 12.9466 22.5637 12.3631C22.4528 12.2904 22.3064 12.1825 22.2332 12.2552C22.16 12.3631 22.3796 12.5458 22.3796 12.5458L24.5111 14.697C24.5111 14.697 24.8061 14.9899 24.8416 15.3532C24.8793 15.646 24.7684 16.0093 24.2915 16.3396C23.5196 16.8482 22.9319 16.4849 22.7833 16.3748C22.1223 15.7187 21.4236 14.9899 20.9091 14.5891C20.8004 14.5165 20.6518 14.4064 20.5786 14.479C20.5054 14.5517 20.7272 14.7697 20.7272 14.7697L22.3064 16.5201C22.3064 16.5201 22.6746 16.9583 22.3441 17.3965C22.3064 17.4691 22.1955 17.5418 22.1223 17.6145C21.7918 17.8699 21.315 17.9073 21.0577 17.8699C20.7627 17.7972 20.6895 17.6871 20.6895 17.6871C20.6895 17.6871 19.8821 16.8482 19.1835 16.2647C19.0726 16.1921 18.9262 16.0842 18.853 16.1568C18.7798 16.2295 18.9994 16.4475 18.9994 16.4475L20.359 17.9425C20.4322 18.0152 20.359 18.0879 20.3213 18.1605C20.2481 18.2706 20.064 18.4159 19.5494 18.4908C18.8885 18.5634 18.192 18.1979 17.897 18.0526C18.0434 17.7972 18.1166 17.5051 18.1166 17.1763C18.1166 16.1194 17.2715 15.2805 16.2069 15.2805C16.1337 15.2805 16.096 15.2805 16.0228 15.2805C16.096 14.6244 15.9496 13.7502 15.0669 13.3847C14.7741 13.2746 14.5168 13.202 14.2595 13.202C14.0022 13.202 13.7826 13.2746 13.5985 13.3495C13.4499 13.0214 13.1927 12.6559 12.6426 12.4732C12.3853 12.4005 12.1657 12.3631 11.9439 12.3631C11.467 12.3631 11.0634 12.5458 10.8061 12.766C10.5111 12.3631 10.0342 12.1099 9.51965 12.1099C9.04056 12.1099 8.63688 12.2904 8.34411 12.6185C8.04911 12.4005 6.57858 11.3062 1.80323 10.2493C1.61914 10.2119 1.10456 10.0666 0.80957 9.99391C1.21546 7.84271 2.64829 5.9095 4.74208 4.3418C6.50539 5.14547 7.68093 5.50877 9.04056 5.87427C9.26236 5.94693 10.4379 6.12969 10.6575 6.12969C11.1721 6.12969 11.6866 5.98437 12.2389 5.83684C12.6803 5.72895 13.1195 5.61886 13.5985 5.5462C13.4145 5.72895 13.2681 5.87427 13.084 6.05703L11.6134 7.65996C11.5779 7.69739 11.283 7.98803 11.4293 8.35354C11.5025 8.49886 11.6134 8.64418 11.7975 8.75427C12.2012 9.04712 13.1195 9.2651 13.8913 9.08235C14.4791 8.97226 15.1046 8.46363 15.8032 7.91537C16.4642 7.40455 17.2361 6.89593 17.7861 6.7484C18.0079 6.67574 18.3007 6.64051 18.5225 6.67574C18.9262 6.7484 19.3299 6.89592 20.0285 7.40455C21.2418 8.31611 26.6426 12.984 26.6781 13.0214C26.6781 13.0214 27.084 13.3495 27.0463 13.8229Z" fill="white"/>
<path d="M17.7508 17.2139C17.7508 18.0153 17.0899 18.6715 16.2803 18.6715C15.5084 18.6715 14.8475 18.0528 14.8097 17.2865C14.8097 17.1412 14.7743 17.1038 14.6634 17.2139C14.4438 17.4319 14.0756 17.6873 13.4501 17.4319C12.6051 17.1038 12.5696 16.5203 12.6051 16.2649C12.6051 16.1922 12.6051 16.157 12.4964 16.2297C12.1659 16.4476 11.7977 16.593 11.3563 16.4124C10.254 16.0095 10.3649 14.9526 10.4004 14.662C10.4004 14.6245 10.4004 14.6245 10.4004 14.6245C10.1808 14.8447 9.9235 14.9526 9.59302 14.9526C8.93206 14.9526 8.41748 14.4418 8.41748 13.7856C8.41748 13.1295 8.93206 12.6187 9.59302 12.6187C10.2185 12.6187 10.6954 13.0568 10.7686 13.6403C10.9527 13.3849 11.5781 12.6561 12.6051 12.9842C13.3414 13.2021 13.4501 13.8583 13.4501 14.0785C13.4501 14.1137 13.4878 14.1137 13.5255 14.0785C13.6719 13.8957 14.1865 13.495 14.9938 13.8583C16.0607 14.3339 15.6193 15.6462 15.5816 15.7188C15.5461 15.7915 15.5084 15.9368 15.5461 15.9368C15.5816 15.9368 15.9498 15.7563 16.2803 15.7563C17.0899 15.7563 17.7508 16.4124 17.7508 17.2139Z" fill="white"/>
<path fill-rule="evenodd" clip-rule="evenodd" d="M34.213 10.1396C34.2862 10.395 34.3217 10.6152 34.3217 10.8706C31.1633 11.5994 28.5172 12.5462 27.3416 13.057C27.488 13.3499 27.5989 13.6779 27.5612 14.006C27.5235 14.4794 27.2662 14.8801 26.8271 15.173C26.4966 15.391 26.1284 15.5011 25.7602 15.5011C25.6515 15.5011 25.5029 15.5011 25.3942 15.4636C25.3942 15.8291 25.2833 16.4479 24.5847 16.886C24.2165 17.1414 23.8128 17.2493 23.4468 17.2493C23.3359 17.2493 23.1896 17.2493 23.0787 17.2141C23.0787 17.5422 22.8214 17.9077 22.4532 18.1609C22.0872 18.4537 21.719 18.5638 21.3508 18.5638C21.1313 18.5638 20.9472 18.5264 20.8008 18.4912C20.7631 18.5264 20.7631 18.5638 20.7276 18.599C20.579 18.7818 20.2862 19.0724 19.5875 19.1473C19.5143 19.1473 19.4411 19.1473 19.3302 19.1473C18.6316 19.1473 17.9706 18.8192 17.6401 18.6365C17.2719 19.0372 16.7574 19.2552 16.2073 19.2552C15.3977 19.2552 14.6636 18.7444 14.3708 18.0156C14.2222 18.0882 14.0381 18.1256 13.8562 18.1256C13.6344 18.1256 13.4148 18.0882 13.193 17.9803C12.5321 17.7249 12.2393 17.3242 12.1284 16.9961C11.982 17.0313 11.8334 17.0313 11.7247 17.0313C11.5406 17.0313 11.3565 16.9961 11.137 16.9212C10.4383 16.668 9.99691 16.1572 9.85052 15.4636C9.73962 15.5011 9.62872 15.5011 9.52004 15.5011C8.60179 15.5011 7.82992 14.7701 7.82992 13.8233C7.82992 13.6045 7.86615 13.3858 7.93861 13.1671C7.68132 12.9844 6.1753 11.9275 1.65724 10.9433C1.47314 10.9058 0.663574 10.7231 0.663574 10.7231C0.70128 10.4677 0.736768 10.2123 0.774474 9.99427C1.06725 10.1044 1.54634 10.2497 1.76592 10.2871C6.213 11.3066 7.86541 12.3282 8.27131 12.6563C8.56408 12.3634 9.00546 12.1829 9.44684 12.1829C9.96142 12.1829 10.4383 12.4009 10.7688 12.8016C11.0993 12.5462 11.4674 12.4383 11.8711 12.4383C12.1284 12.4383 12.348 12.4735 12.6053 12.5462C13.0467 12.6937 13.3771 12.9844 13.5989 13.3851C13.8185 13.3124 14.0026 13.275 14.2222 13.275C14.5172 13.275 14.7745 13.3499 15.0672 13.4578C16.0609 13.8585 16.1341 14.8075 16.0964 15.3183C16.1341 15.3183 16.1341 15.3183 16.1696 15.3183C17.2719 15.3183 18.1547 16.1924 18.1547 17.2867C18.1547 17.5796 18.0815 17.8702 17.9706 18.1256C18.2656 18.271 18.7802 18.5264 19.2948 18.5264C19.3679 18.5264 19.4034 18.5264 19.4766 18.5264C19.9557 18.4537 20.1398 18.3084 20.1753 18.2357C20.213 18.1609 20.213 18.1256 20.213 18.1256L18.8534 16.668C18.7802 16.5932 18.5961 16.3752 18.7048 16.2299C18.7425 16.1924 18.8157 16.1572 18.8534 16.1572C18.9621 16.1572 19.073 16.2299 19.1461 16.3025C19.8071 16.8486 20.6167 17.6148 20.6899 17.7249C20.7631 17.7976 20.874 17.8328 21.0204 17.8702C21.0943 17.8702 21.1682 17.8702 21.2422 17.8702C21.3885 17.8702 21.7545 17.8328 22.0118 17.6148C22.0495 17.5796 22.1959 17.4321 22.2336 17.3968C22.5264 17.0688 22.1959 16.668 22.1959 16.668L20.6167 14.9176C20.6167 14.9176 20.5435 14.8801 20.5058 14.8075C20.3971 14.6247 20.4326 14.5168 20.4703 14.4794C20.5058 14.4067 20.579 14.4067 20.6167 14.4067C20.7276 14.4067 20.8363 14.5168 20.9472 14.5895C21.3885 14.9176 21.9763 15.5011 22.5264 16.0471L22.8569 16.34C22.9323 16.3752 23.1518 16.5205 23.4823 16.5205C23.7396 16.5205 23.9969 16.4479 24.2542 16.2651C24.6224 16.0471 24.7688 15.7565 24.7688 15.391C24.7311 15.0629 24.4738 14.8075 24.4738 14.8075L22.3068 12.6563C22.1604 12.5462 22.0495 12.3634 22.1604 12.2181C22.1959 12.1829 22.2336 12.1455 22.3068 12.1455C22.4177 12.1455 22.5264 12.2181 22.6373 12.3282C23.2982 12.9117 25.1724 14.5895 25.1724 14.5895C25.1724 14.5895 25.4297 14.7701 25.7979 14.7701C26.0175 14.7701 26.2748 14.6974 26.4966 14.5521C26.7539 14.3693 26.9358 14.1139 26.9358 13.8585C26.9358 13.3499 26.6053 13.057 26.6053 13.057C26.5698 13.0218 21.1667 8.3539 19.9557 7.44235C19.257 6.93152 18.8889 6.7862 18.4852 6.74877C18.4475 6.74877 18.3743 6.74877 18.3388 6.74877C18.1547 6.74877 17.9706 6.7862 17.7865 6.82143C17.1987 7.00418 16.4269 7.55244 15.8768 7.9884C15.2159 8.53666 14.5527 9.04748 13.9294 9.1928C13.7453 9.22803 13.5257 9.26546 13.3039 9.26546C12.7162 9.26546 12.0907 9.08271 11.7247 8.86473C11.5406 8.71941 11.3942 8.57189 11.3211 8.42657C11.1724 8.06106 11.4297 7.73299 11.5406 7.6251L13.0112 6.01996C13.1198 5.90987 13.193 5.83721 13.3039 5.72932C12.9735 5.80198 12.643 5.90987 12.3125 5.98473C11.7602 6.13005 11.2456 6.27537 10.6956 6.27537C10.4383 6.27537 10.181 6.23794 9.96142 6.23794C9.15185 6.16528 6.54349 5.50913 4.41199 4.63501C4.63157 4.48968 4.81567 4.34216 5.03747 4.19684C7.05806 4.99831 9.62872 5.61923 10.1433 5.61923C10.181 5.61923 10.5115 5.61923 10.6956 5.61923C11.137 5.61923 11.6138 5.50913 12.1284 5.36381C12.7162 5.21849 13.3771 4.99831 14.149 4.99831C14.9209 4.34216 16.0964 3.61335 18.1924 3.57812C18.2279 3.57812 18.3011 3.57812 18.3388 3.57812C20.1398 3.57812 21.8299 4.37959 21.9031 4.41482C23.2627 5.07317 24.6579 5.40124 26.0552 5.40124C27.4503 5.40124 28.8477 5.1084 30.3537 4.45225C30.5378 4.59757 30.7574 4.78033 30.9415 4.92565C29.2513 5.69189 27.6344 6.09262 26.0552 6.09262C24.5492 6.09262 23.0787 5.72932 21.6081 5.03574C21.424 4.96308 19.8825 4.2695 18.3388 4.2695C18.3018 4.2695 18.2649 4.2695 18.2279 4.2695C15.7304 4.34216 14.6636 5.40124 13.5257 6.53079L12.0552 8.09849C11.982 8.17115 11.9443 8.24381 11.982 8.28124C12.1661 8.49923 12.643 8.64455 13.1576 8.64455C13.3771 8.64455 13.5612 8.60932 13.783 8.57189C14.2599 8.464 14.8854 7.9884 15.4731 7.51501L15.5086 7.47757C16.1696 6.96895 16.8328 6.45812 17.4937 6.23794C17.7865 6.13005 18.0815 6.09262 18.3388 6.09262C18.6316 6.09262 18.8534 6.16528 18.9998 6.20271C19.3679 6.27537 19.7716 6.53079 20.3594 6.96895C21.424 7.73299 25.2456 11.0512 26.9003 12.4735C27.5989 12.1455 30.4269 10.9433 34.213 10.1396ZM17.6024 17.1767C17.6024 16.4478 16.9792 15.8291 16.2428 15.8291C16.0609 15.8291 15.8768 15.9018 15.7304 15.937C15.655 15.9745 15.5818 15.9745 15.5463 15.9745H15.4731C15.3622 15.9018 15.3977 15.8291 15.4731 15.609C15.4731 15.5737 15.9123 14.3341 14.9209 13.8959C14.7013 13.7858 14.5172 13.7506 14.3331 13.7506C13.9294 13.7506 13.6721 13.9686 13.5612 14.0787C13.5612 14.1139 13.488 14.1513 13.4503 14.1513C13.4503 14.1513 13.3416 14.1513 13.3416 14.006C13.3416 13.7858 13.2307 13.2023 12.6053 13.0218C12.4234 12.9844 12.2748 12.9469 12.1284 12.9469C11.3211 12.9117 10.8797 13.5679 10.8797 13.6053L10.7311 13.8585L10.6956 13.5679C10.6224 13.057 10.1433 12.6563 9.62872 12.6563C9.04095 12.6563 8.56408 13.1297 8.56408 13.7132C8.56408 14.2967 9.04095 14.7701 9.62872 14.7701C9.88601 14.7701 10.1433 14.6622 10.3651 14.4794L10.4383 14.4067L10.5115 14.4794C10.5492 14.5168 10.5492 14.5521 10.5492 14.6247C10.476 14.9176 10.4006 15.8644 11.4297 16.2651C11.5406 16.3025 11.687 16.34 11.7979 16.34C12.0182 16.34 12.2386 16.2666 12.4589 16.1198C12.5321 16.0471 12.5698 16.0471 12.6053 16.0471H12.643L12.6807 16.0845C12.7162 16.1198 12.7162 16.1572 12.7162 16.2299C12.6807 16.4478 12.7162 16.9587 13.488 17.2867C13.6344 17.3601 13.7815 17.3968 13.9294 17.3968C14.2222 17.3968 14.444 17.2493 14.5904 17.104C14.6636 17.0688 14.7013 17.0313 14.7745 17.0313C14.9209 17.0313 14.9209 17.1767 14.9209 17.2493C14.9586 17.9803 15.5463 18.5638 16.2805 18.5638C17.0147 18.5638 17.6401 17.9803 17.6024 17.1767Z" fill="#2D3277"/>
</g>
<defs>
<clipPath id="clip0_1428_171">
<rect width="35" height="24" fill="white"/>
</clipPath>
</defs>
</svg>
