<svg width="42" height="24" viewBox="0 0 42 24" fill="none" xmlns="http://www.w3.org/2000/svg">
<g clip-path="url(#clip0_1431_5)">
<path d="M33.0877 7.45955H34.135C34.1757 7.1669 34.1965 6.8719 34.1974 6.5765C34.1974 2.94439 31.2191 0 27.5453 0C24.2769 0 21.5611 2.33088 21.0008 5.40253C20.4406 2.33088 17.7237 0 14.4554 0C10.7815 0 7.80322 2.94439 7.80322 6.5765C7.80322 10.2086 10.7815 13.1532 14.4554 13.1532C17.7237 13.1532 20.4406 10.8221 20.9998 7.75047C21.56 10.8221 24.2758 13.1532 27.5442 13.1532C30.2165 13.1532 32.5195 11.5946 33.5772 9.34736H30.4875C30.1084 9.7422 29.6519 10.0565 29.1459 10.2711C28.6398 10.4857 28.0949 10.5961 27.5442 10.5956C25.606 10.5956 23.9857 9.25422 23.5785 7.45955H33.0877ZM14.4554 10.5956C12.2094 10.5956 10.3901 8.79615 10.3901 6.5765C10.3901 4.35685 12.2102 2.55765 14.4554 2.55765C16.7005 2.55765 18.5206 4.35706 18.5206 6.57671C18.5206 8.79636 16.7005 10.5956 14.4554 10.5956ZM23.8345 4.93232C24.1553 4.22495 24.6762 3.6244 25.3345 3.20307C25.9927 2.78173 26.7601 2.55759 27.5442 2.55765C28.3283 2.55764 29.0957 2.78184 29.7539 3.20321C30.4121 3.62458 30.9329 4.22515 31.2537 4.93253L23.8345 4.93232Z" fill="#FE141F"/>
<path d="M3.07579 17.9175C2.25996 17.9176 1.4776 18.2381 0.90078 18.8085C0.323964 19.3788 -5.51535e-05 20.1524 7.04168e-09 20.9589C-4.15132e-10 21.7654 0.324042 22.5389 0.900852 23.1092C1.47766 23.6796 2.26 24 3.07579 24.0001C3.4799 24.0003 3.8801 23.9218 4.25351 23.7691C4.62693 23.6164 4.96624 23.3924 5.25207 23.11C5.5379 22.8275 5.76464 22.4922 5.91933 22.1231C6.07403 21.754 6.15366 21.3584 6.15366 20.9589C6.15368 20.5594 6.07408 20.1637 5.91939 19.7946C5.76471 19.4255 5.53797 19.0902 5.25214 18.8077C4.96631 18.5253 4.62699 18.3013 4.25356 18.1485C3.88013 17.9958 3.47992 17.9173 3.07579 17.9175ZM3.07579 22.8173C2.57718 22.8173 2.099 22.6215 1.74643 22.2729C1.39386 21.9244 1.19579 21.4516 1.19579 20.9587C1.19579 20.4658 1.39386 19.993 1.74643 19.6445C2.099 19.2959 2.57718 19.1001 3.07579 19.1001C3.57439 19.1001 4.05258 19.2959 4.40515 19.6445C4.75771 19.993 4.95578 20.4658 4.95578 20.9587C4.95578 21.4516 4.75771 21.9244 4.40515 22.2729C4.05258 22.6215 3.57439 22.8173 3.07579 22.8173Z" fill="#FE141F"/>
<path d="M12.5619 21.3672H13.0462C13.0649 21.2319 13.0744 21.0955 13.0747 20.9589C13.0747 20.5595 12.9952 20.164 12.8406 19.795C12.686 19.426 12.4594 19.0907 12.1737 18.8082C11.888 18.5258 11.5489 18.3018 11.1756 18.1489C10.8024 17.9961 10.4023 17.9175 9.99829 17.9175C9.59428 17.9175 9.19422 17.9961 8.82096 18.1489C8.4477 18.3018 8.10855 18.5258 7.82287 18.8082C7.5372 19.0907 7.31059 19.426 7.156 19.795C7.0014 20.164 6.92185 20.5595 6.92188 20.9589C6.92188 21.3583 7.00145 21.7538 7.15606 22.1228C7.31066 22.4918 7.53727 22.827 7.82295 23.1095C8.10862 23.3919 8.44776 23.6159 8.82101 23.7687C9.19426 23.9215 9.5943 24.0002 9.99829 24.0001C10.5846 24.0001 11.1586 23.8344 11.6529 23.5226C12.1471 23.2108 12.5409 22.7659 12.7879 22.2402H11.3592C11.1839 22.4228 10.9728 22.5682 10.7388 22.6674C10.5048 22.7667 10.2527 22.8178 9.99808 22.8175C9.5713 22.8174 9.15724 22.6738 8.82397 22.4102C8.4907 22.1467 8.25805 21.7788 8.16425 21.3672H12.5617H12.5619ZM9.99829 19.1003C10.3609 19.1003 10.7157 19.204 11.0201 19.3989C11.3244 19.5937 11.5653 19.8715 11.7136 20.1986H8.28217C8.43053 19.8714 8.6715 19.5935 8.976 19.3987C9.28051 19.2038 9.63555 19.1001 9.99829 19.1003Z" fill="#FE141F"/>
<path d="M41.4865 21.3672H41.9709C42.0744 20.6075 41.8838 19.8372 41.4371 19.2107C40.9905 18.5841 40.3209 18.1476 39.5624 17.9885C38.804 17.8295 38.0127 17.9596 37.3472 18.3529C36.6818 18.7462 36.1912 19.3736 35.9738 20.1094C35.7565 20.8452 35.8284 21.635 36.1752 22.3206C36.522 23.0061 37.118 23.5368 37.8438 23.8063C38.5697 24.0758 39.3717 24.0641 40.0892 23.7737C40.8068 23.4833 41.3868 22.9355 41.713 22.2401H40.2841C40.0495 22.4839 39.7524 22.6601 39.4244 22.75C39.0965 22.8399 38.75 22.84 38.422 22.7504C38.0939 22.6607 37.7967 22.4847 37.5619 22.2411C37.3272 21.9975 37.1638 21.6954 37.0891 21.3672H41.4865ZM38.9236 19.1002C39.2862 19.1002 39.641 19.2039 39.9454 19.3988C40.2497 19.5937 40.4906 19.8714 40.6389 20.1985H37.2075C37.3558 19.8713 37.5968 19.5935 37.9013 19.3986C38.2058 19.2037 38.5609 19.1001 38.9236 19.1002Z" fill="#FE141F"/>
<path d="M18.706 21.7193C18.531 22.1049 18.2282 22.42 17.8477 22.6127C17.4672 22.8053 17.0316 22.8639 16.6129 22.7789C16.1941 22.6939 15.8172 22.4702 15.5443 22.1449C15.2714 21.8196 15.1188 21.412 15.1117 20.9895C15.1047 20.5669 15.2435 20.1545 15.5054 19.8205C15.7672 19.4864 16.1365 19.2506 16.5521 19.1519C16.9678 19.0532 17.4051 19.0975 17.7919 19.2776C18.1786 19.4577 18.4917 19.7627 18.6796 20.1424H19.954C19.7532 19.4323 19.2982 18.8185 18.6737 18.4154C18.0492 18.0123 17.2979 17.8473 16.5595 17.9512C15.8211 18.0551 15.1461 18.4208 14.6602 18.9801C14.1743 19.5394 13.9105 20.2543 13.9181 20.9916C13.9257 21.7289 14.2041 22.4383 14.7014 22.9878C15.1988 23.5372 15.8811 23.8892 16.6215 23.9782C17.3618 24.0673 18.1097 23.8872 18.7257 23.4716C19.3418 23.0561 19.7841 22.4333 19.9702 21.7193H18.706Z" fill="#FE141F"/>
<path d="M23.7776 17.9585C23.1502 17.9584 22.5465 18.1951 22.0898 18.6203V16.0166H20.8936V24H22.09V20.7104C22.09 19.8346 22.7929 19.1244 23.6601 19.1244C24.5273 19.1244 25.2302 19.8344 25.2302 20.7104V24H26.4266V20.6339C26.4264 19.1563 25.2406 17.9585 23.7776 17.9585Z" fill="#FE141F"/>
<path d="M30.8807 19.6275C30.8058 19.205 30.5708 18.8668 29.9087 18.8668C29.1583 18.8668 28.9007 19.2369 28.9046 19.6166C28.9152 20.6516 32.3227 19.8824 32.3227 22.0114C32.3227 23.6951 30.8416 23.9992 30.0222 23.9992C28.8275 23.9992 27.5339 23.5429 27.4946 22.0005H28.7871C28.7871 22.4892 29.1893 22.9008 30.0582 22.9008C30.7692 22.9008 31.0229 22.421 31.0302 22.2039C31.0729 20.9365 27.6548 21.8554 27.6121 19.7644C27.5953 18.9408 28.0927 17.9165 29.8051 17.9165C30.8318 17.9165 32.0237 18.1805 32.152 19.6294L30.8807 19.6275Z" fill="#FE141F"/>
<path d="M35.0497 22.7469C35.0047 22.747 34.9602 22.7383 34.9186 22.7214C34.877 22.7045 34.8392 22.6796 34.8074 22.6482C34.7755 22.6168 34.7503 22.5795 34.7331 22.5384C34.7158 22.4974 34.7069 22.4533 34.7069 22.4089V16.0166H33.4546V22.3316C33.4546 22.7741 33.6324 23.1985 33.9489 23.5113C34.2654 23.8242 34.6946 24 35.1422 24H35.1921V22.7459L35.0497 22.7469Z" fill="#FE141F"/>
</g>
<defs>
<clipPath id="clip0_1431_5">
<rect width="42" height="24" fill="white"/>
</clipPath>
</defs>
</svg>
